<svg width="372" height="372" viewBox="0 0 372 372" fill="none" xmlns="http://www.w3.org/2000/svg">
<path opacity="0.7" d="M50.5388 124.315C50.5388 124.315 29.7961 177.883 58.946 231.823C88.096 285.763 148.137 314.258 196.192 338.624C244.247 362.99 294.147 351.123 317.858 311.215C341.569 271.307 309.049 242.819 309.004 185.911C308.96 129.002 317.523 113.936 286.684 65.8589C255.846 17.7817 180.248 7.13503 123.079 42.7949C65.9099 78.4549 50.5388 124.315 50.5388 124.315Z" fill="white"/>
<path d="M331.079 212.449C334.556 196.373 333.043 179.618 326.742 164.424C318.148 143.175 299.69 128.08 278.999 119.271C248.934 106.474 219.427 106.228 194.987 81.1481C187.45 73.4105 181.126 64.5495 173.411 56.9681C150.711 34.6481 117.469 37.3339 92.6568 55.056C40.919 92.0551 22.2744 165.272 25.1537 225.804C26.4482 252.96 39.431 278.256 59.9431 296.112C106.369 336.422 185.203 329.644 238.503 308.604C278.255 292.876 321.712 256.271 331.079 212.449Z" fill="#407BFF"/>
<path opacity="0.7" d="M331.079 212.449C334.556 196.373 333.043 179.618 326.742 164.424C318.148 143.175 299.69 128.08 278.999 119.271C248.934 106.474 219.427 106.228 194.987 81.1481C187.45 73.4105 181.126 64.5495 173.411 56.9681C150.711 34.6481 117.469 37.3339 92.6568 55.056C40.919 92.0551 22.2744 165.272 25.1537 225.804C26.4482 252.96 39.431 278.256 59.9431 296.112C106.369 336.422 185.203 329.644 238.503 308.604C278.255 292.876 321.712 256.271 331.079 212.449Z" fill="white"/>
<path d="M60.3015 100.596H47.1699C47.1699 100.596 48.4794 97.3448 58.6945 98.4311C58.6945 98.4311 63.7834 92.5981 71.2011 92.5981C71.344 91.2208 71.944 89.9309 72.9055 88.9344C73.867 87.9379 75.1345 87.292 76.5058 87.0999C81.5725 86.1179 82.5546 90.6339 82.5546 90.6339C83.9386 90.0378 85.4297 89.7304 86.9367 89.7304C88.4437 89.7304 89.9348 90.0378 91.3189 90.6339C96.3409 92.6204 95.3216 98.4162 95.3216 98.4162C95.3216 98.4162 109.815 97.94 112.307 100.596H104.904" stroke="#263238" stroke-width="0.744" stroke-linecap="round" stroke-linejoin="round"/>
<path d="M286.202 174.639H228.914C228.914 174.639 231.287 168.784 249.679 170.74C249.679 170.74 258.838 160.235 272.2 160.235C272.2 160.235 272.646 152.051 281.768 150.318C290.889 148.584 292.66 156.701 292.66 156.701C292.66 156.701 299.401 153.13 308.448 156.701C317.495 160.272 315.664 170.711 315.664 170.711C315.664 170.711 341.771 169.855 346.243 174.639H333.007" stroke="#263238" stroke-width="0.744" stroke-linecap="round" stroke-linejoin="round"/>
<path d="M249.293 245.52H294.982C294.982 245.52 293.099 240.855 278.428 242.41C278.428 242.41 271.114 234.032 260.46 234.032C260.46 234.032 260.103 227.522 252.834 226.124C245.565 224.725 244.144 231.213 244.144 231.213C244.144 231.213 238.765 228.363 231.556 231.213C224.346 234.062 225.797 242.373 225.797 242.373C225.797 242.373 204.965 241.688 201.401 245.505H215.232" stroke="#263238" stroke-width="0.744" stroke-linecap="round" stroke-linejoin="round"/>
<path d="M84.4147 224.16H36.5234C40.1021 220.343 60.9192 221.027 60.9192 221.027C60.9192 221.027 59.4312 212.702 66.6778 209.867C73.9243 207.033 79.2662 209.867 79.2662 209.867C79.2662 209.867 80.6798 203.38 87.9562 204.778C95.2325 206.177 95.5822 212.687 95.5822 212.687C106.244 212.687 113.55 221.065 113.55 221.065C128.221 219.51 130.111 224.174 130.111 224.174H124.762" stroke="#263238" stroke-width="0.744" stroke-linecap="round" stroke-linejoin="round"/>
<path d="M146.047 152.639H126.837C126.837 152.639 127.96 149.864 136.673 150.794C136.673 150.794 141.01 145.816 147.342 145.816C147.466 144.641 147.979 143.541 148.8 142.69C149.621 141.839 150.702 141.288 151.873 141.122C156.195 140.288 157.036 144.142 157.036 144.142C158.216 143.631 159.488 143.368 160.774 143.368C162.06 143.368 163.333 143.631 164.513 144.142C168.799 145.831 167.928 150.779 167.928 150.779C167.928 150.779 180.301 150.37 182.421 152.639H177.816" stroke="#263238" stroke-width="0.744" stroke-linecap="round" stroke-linejoin="round"/>
<path d="M62.5928 100.596H64.7801" stroke="#263238" stroke-width="0.744" stroke-linecap="round" stroke-linejoin="round"/>
<path d="M76.8779 100.566H96.9436" stroke="#263238" stroke-width="0.744" stroke-linecap="round" stroke-linejoin="round"/>
<path d="M150.578 152.498H153.323" stroke="#263238" stroke-width="0.744" stroke-linecap="round" stroke-linejoin="round"/>
<path d="M144.686 59.7132H125.476C125.476 59.7132 126.599 56.9381 135.311 57.8681C135.311 57.8681 139.649 52.8907 145.98 52.8907C146.104 51.7153 146.618 50.615 147.439 49.7645C148.259 48.914 149.341 48.362 150.511 48.1961C154.834 47.3628 155.675 51.2167 155.675 51.2167C156.85 50.7111 158.115 50.4504 159.395 50.4504C160.674 50.4504 161.94 50.7111 163.115 51.2167C167.4 52.9056 166.53 57.8532 166.53 57.8532C166.53 57.8532 178.902 57.4515 181.023 59.7132H176.373" stroke="#263238" stroke-width="0.744" stroke-linecap="round" stroke-linejoin="round"/>
<path d="M149.21 59.5793H151.963" stroke="#263238" stroke-width="0.744" stroke-linecap="round" stroke-linejoin="round"/>
<path d="M120.752 224.16H118.721" stroke="#263238" stroke-width="0.744" stroke-linecap="round" stroke-linejoin="round"/>
<path d="M92.7031 224.16H99.6967" stroke="#263238" stroke-width="0.744" stroke-linecap="round" stroke-linejoin="round"/>
<path d="M218.952 245.55H225.693" stroke="#263238" stroke-width="0.744" stroke-linecap="round" stroke-linejoin="round"/>
<path d="M291.679 174.639H297.006" stroke="#263238" stroke-width="0.744" stroke-linecap="round" stroke-linejoin="round"/>
<path d="M97.0691 156.813C97.0691 156.813 81.8394 165.986 77.6582 166.403C73.4769 166.819 63.5594 166.403 63.5594 166.403C63.5594 166.403 61.558 167.013 60.2188 167.541C58.7308 168.136 55.7548 168.903 56.4095 167.229C57.0642 165.555 60.1295 162.832 61.9002 162.854C62.3392 162.854 63.3882 163.732 63.3882 163.732L74.1167 162.854L80.2547 159.975C80.2547 159.975 78.8709 159.707 76.929 159.35H76.8844C72.8594 158.606 66.4684 157.438 65.0622 157.378C62.927 157.289 55.048 148.733 54.2222 147.706C53.3963 146.679 49.1927 147.892 48.1511 147.475C47.1095 147.059 47.794 146.077 47.794 146.077C49.6207 144.862 51.6683 144.018 53.8204 143.592C56.6402 143.049 56.4095 145.251 56.4095 145.251C56.4095 145.251 64.5935 151.262 66.2601 151.262C67.9266 151.262 83.134 150.779 85.2023 149.946C86.9507 149.202 94.227 154.633 96.4293 156.314C96.8385 156.627 97.0691 156.813 97.0691 156.813Z" fill="#757575" stroke="#263238" stroke-width="0.744" stroke-linecap="round" stroke-linejoin="round"/>
<path d="M54.2368 147.714C53.4035 146.709 49.2074 147.9 48.1658 147.483C47.1242 147.066 47.8086 146.084 47.8086 146.084C49.6303 144.868 51.6727 144.022 53.8202 143.592C56.6399 143.049 56.4093 145.251 56.4093 145.251C56.4093 145.251 54.0731 145.72 54.2368 147.714Z" fill="#263238"/>
<path d="M97.0687 156.813C97.0687 156.813 81.839 165.986 77.6578 166.403C73.4765 166.819 63.559 166.403 63.559 166.403C63.559 166.403 61.5576 167.013 60.2184 167.541C58.7304 168.136 55.7544 168.903 56.4091 167.229C57.0638 165.555 60.1291 162.832 61.8998 162.854C62.3388 162.854 63.3878 163.732 63.3878 163.732L74.1163 162.854L80.2543 159.975C80.2543 159.975 78.8705 159.707 76.9286 159.35H76.9956L83.6172 159.692C83.6172 159.692 80.3213 158.688 80.6412 158.1C80.9611 157.512 85.1052 159.67 90.7001 157.557C92.5076 156.813 94.4315 156.393 96.3842 156.314C96.8381 156.627 97.0687 156.813 97.0687 156.813Z" fill="#263238"/>
<path d="M100.625 142.461L107.552 151.717L118.563 159.848C118.563 159.848 122.246 160.823 122.707 161.768C122.796 161.939 123.451 164.074 123.101 164C121.494 163.695 120.758 162.958 120.319 163.189C118.905 163.933 120.817 165.295 120.319 165.421C118.935 165.667 117.216 161.627 117.216 161.627C117.216 161.627 107.812 155.764 105.781 154.581C103.75 153.398 96.5928 147.885 96.5928 147.885C96.5928 147.885 98.5569 143.503 100.625 142.461Z" fill="#BFBFBF" stroke="#263238" stroke-width="0.744" stroke-miterlimit="10"/>
<path d="M110.513 149.693L111.838 152.438C111.838 152.438 112.619 151.694 112.619 152.438C112.619 153.182 107.612 157.973 105.848 157.542C104.085 157.11 103.795 156.113 103.795 156.113C103.795 156.113 106.295 150.816 107.321 150.228C108.348 149.641 110.513 149.693 110.513 149.693Z" fill="#407BFF" stroke="#263238" stroke-width="0.744" stroke-linecap="round" stroke-linejoin="round"/>
<path d="M83.6328 144.983C83.6328 144.983 100.239 153.614 99.7107 156.508C99.1824 159.402 98.736 159.7 98.736 159.7C98.736 159.7 104.77 157.676 105.611 153.807C106.451 149.938 95.9758 139.731 83.6328 144.983Z" fill="#263238"/>
<path d="M89.7927 135.817C94.3566 136.22 98.7145 137.901 102.366 140.668C107.225 144.388 110.245 148.473 109.873 150.228C109.286 153.026 99.6433 156.634 93.4681 158.249C87.2929 159.863 80.6118 155.273 80.6862 152.349C80.7606 149.425 84.1904 149.715 84.1904 149.715C84.1904 149.715 87.2929 138.168 89.7927 135.817Z" fill="#263238"/>
<path d="M98.8028 140.229C97.9237 139.943 96.9764 139.944 96.0978 140.231C95.2192 140.519 94.4547 141.078 93.9148 141.829C92.0759 144.498 89.3282 146.408 86.1846 147.2C79.4142 148.83 69.333 146.672 69.333 146.672C70.0444 144.255 70.9296 141.893 71.9816 139.604C73.8193 135.512 78.2312 132.789 82.9408 132.164C84.9421 131.889 94.3537 135.482 94.3537 135.482C108.758 131.42 111.265 147.237 111.265 147.237H109.903C110.36 148.096 110.564 149.066 110.491 150.035L106.332 153.755C103.222 160.726 96.0947 161.195 95.2986 160.004C95.2986 160.004 104.509 159.908 106.89 145.325C107.247 143.108 102.091 141.278 98.8028 140.229Z" fill="#407BFF" stroke="#263238" stroke-width="0.744" stroke-linecap="round" stroke-linejoin="round"/>
<path d="M89.7933 135.817L78.4324 133.697L66.268 127.417C66.268 127.417 63.7607 124.553 62.7117 124.553C62.5182 124.553 60.3234 124.925 60.5243 125.185C61.5138 126.48 62.4959 126.83 62.4959 127.321C62.4959 128.913 60.3829 127.812 60.5168 128.28C60.9037 129.627 65.2933 129.382 65.2933 129.382C65.2933 129.382 74.7124 135.222 76.6691 136.524C78.6258 137.826 86.7205 141.806 86.7205 141.806C86.7205 141.806 89.7784 138.131 89.7933 135.817Z" fill="#BFBFBF" stroke="#263238" stroke-width="0.744" stroke-miterlimit="10"/>
<path d="M91.184 140.519C89.5174 143.213 85.0981 143.495 85.0981 143.495L81.4748 140.051L79.8008 139.589C80.4927 138.339 80.6861 133.161 80.6861 133.161C80.6861 133.161 89.0189 135.058 90.2986 134.761C91.5783 134.463 91.9726 137.9 91.9726 137.9" fill="#407BFF"/>
<path d="M91.184 140.519C89.5174 143.213 85.0981 143.495 85.0981 143.495L81.4748 140.051L79.8008 139.589C80.4927 138.339 80.6861 133.161 80.6861 133.161C80.6861 133.161 89.0189 135.058 90.2986 134.761C91.5783 134.463 91.9726 137.9 91.9726 137.9" stroke="#263238" stroke-width="0.744" stroke-linecap="round" stroke-linejoin="round"/>
<path d="M93.4678 140.519C93.4678 140.519 95.1567 137.64 93.4678 135.817C93.4678 135.817 97.7681 133.429 103.207 136.249C108.645 139.068 110.55 142.848 111.264 147.2C111.264 147.2 108.154 146.062 106.8 149.886" stroke="#263238" stroke-width="0.744" stroke-linecap="round" stroke-linejoin="round"/>
<path d="M111.048 135.222C112.276 135.572 113.846 137.454 112.573 138.02C111.301 138.585 111.948 139.388 112.038 139.686C112.127 139.984 112.179 140.668 111.048 140.765C109.917 140.862 109.828 140.371 109.382 141.055C108.935 141.74 109.664 141.33 108.571 141.799C107.477 142.268 107.67 142.312 106.83 142.342C105.989 142.372 105.022 142.863 104.508 141.494C103.995 140.125 108.846 134.582 111.048 135.222Z" fill="#263238"/>
<path d="M101.696 131.39C96.2131 131.085 94.926 140.147 99.2486 145.668C103.571 151.188 116.413 132.231 101.696 131.39Z" fill="#BFBFBF" stroke="#263238" stroke-width="0.744" stroke-miterlimit="10"/>
<path d="M100.061 136.896C100.663 135.973 102.813 138.756 103.037 138.071C103.26 137.387 104.309 138.875 104.755 139.039C105.46 139.143 106.179 139.029 106.816 138.711C107.404 138.414 109.562 139.73 110.246 139.098C110.439 138.956 110.581 138.756 110.652 138.527C110.723 138.298 110.719 138.052 110.64 137.826C110.64 137.826 112.262 137.58 112.552 136.896C112.843 136.211 111.57 137.208 112.21 135.824C112.85 134.441 114.442 133.592 113.282 133.02C112.121 132.447 111.28 131.792 111.719 130.713C112.158 129.634 111.868 128.012 110.886 128.012C109.904 128.012 107.404 128.704 107.501 127.477C107.597 126.249 103.58 125.855 102.985 126.643C102.389 127.432 100.753 126.219 99.897 126.234C99.0414 126.249 96.5638 128.012 96.921 129.143C97.2781 130.274 96.4374 130.304 96.0877 131.375C95.9427 131.774 95.8895 132.201 95.932 132.623C95.9745 133.046 96.1116 133.453 96.3332 133.816C96.6308 134.083 94.8452 133.548 95.4999 135.066C96.1546 136.583 96.1844 137.26 96.4299 137.357C96.6754 137.454 96.7796 135.653 97.8063 135.259C98.833 134.865 98.4908 137.811 98.4908 137.811C98.4908 137.811 99.3315 138.019 100.061 136.896Z" fill="#263238"/>
<path d="M99.6953 138.994C100.095 138.857 100.52 138.807 100.94 138.846C101.361 138.886 101.769 139.015 102.136 139.225" stroke="#263238" stroke-width="0.744" stroke-linecap="round" stroke-linejoin="round"/>
<path d="M105.163 139.783C105.353 139.686 105.56 139.628 105.773 139.613C105.985 139.599 106.199 139.627 106.4 139.696C106.601 139.766 106.787 139.875 106.945 140.018C107.103 140.16 107.231 140.334 107.321 140.527" stroke="#263238" stroke-width="0.744" stroke-linecap="round" stroke-linejoin="round"/>
<path d="M103.795 141.546C103.646 143.116 104.286 144.247 102.619 143.904" stroke="#263238" stroke-width="0.744" stroke-linecap="round" stroke-linejoin="round"/>
<path d="M101.184 141.107C101.117 141.39 100.916 141.576 100.73 141.539C100.544 141.501 100.44 141.234 100.499 140.958C100.559 140.683 100.767 140.49 100.953 140.534C101.139 140.579 101.184 140.832 101.184 141.107Z" fill="#263238"/>
<path d="M105.945 141.888C105.886 142.164 105.685 142.35 105.491 142.312C105.298 142.275 105.201 142.007 105.268 141.732C105.335 141.457 105.536 141.263 105.722 141.308C105.908 141.353 106.012 141.606 105.945 141.888Z" fill="#263238"/>
<path d="M296.767 138.273C296.319 138.432 295.836 138.471 295.368 138.384C293.538 138.154 290.964 136.792 290.465 134.843C290.432 134.709 290.39 134.577 290.339 134.448C290.185 133.859 289.879 133.32 289.45 132.886C289.022 132.452 288.487 132.139 287.899 131.978C287.899 131.978 286.693 130.996 286.693 130.349C286.693 129.702 287.489 128.221 287.296 127.075C287.103 125.93 287.675 123.891 288.576 123.4C289.275 123.063 290.057 122.938 290.826 123.04C291.596 123.141 292.318 123.466 292.906 123.973C294.394 125.275 295.77 129.925 297.161 132.306C298.553 134.687 298.24 137.64 296.767 138.273Z" fill="#407BFF"/>
<path opacity="0.3" d="M295.368 138.384C293.538 138.153 290.964 136.792 290.465 134.843C290.432 134.708 290.39 134.577 290.339 134.448C291.552 134.352 293.679 133.704 294.014 130.728C294.029 130.713 297.652 135.185 295.368 138.384Z" fill="black" fill-opacity="0.7"/>
<path d="M296.767 138.273C296.319 138.432 295.836 138.471 295.368 138.384C293.538 138.154 290.964 136.792 290.465 134.843C290.432 134.709 290.39 134.577 290.339 134.448C290.185 133.859 289.879 133.32 289.45 132.886C289.022 132.452 288.487 132.139 287.899 131.978C287.899 131.978 286.693 130.996 286.693 130.349C286.693 129.702 287.489 128.221 287.296 127.075C287.103 125.93 287.675 123.891 288.576 123.4C289.275 123.063 290.057 122.938 290.826 123.04C291.596 123.141 292.318 123.466 292.906 123.973C294.394 125.275 295.77 129.925 297.161 132.306C298.553 134.687 298.24 137.64 296.767 138.273Z" stroke="#263238" stroke-width="0.744" stroke-linecap="round" stroke-linejoin="round"/>
<path d="M294.03 129.895C294.03 129.895 293.851 133.704 292.318 133.883" stroke="#263238" stroke-width="0.744" stroke-linecap="round" stroke-linejoin="round"/>
<path d="M292.988 172.482L285.696 152.989C285.63 152.795 285.563 152.602 285.51 152.401C284.38 148.361 285.882 142.922 286.842 139.537C287.141 138.423 287.362 137.289 287.504 136.145C287.746 134.266 287.892 132.376 287.943 130.483C290.451 128.63 292.407 131.725 292.407 131.725C292.407 131.725 291.753 134.188 293.553 145.184C295.354 156.181 297.831 169.997 292.988 172.482Z" fill="white"/>
<path opacity="0.4" d="M291.083 155.645L285.54 152.401C284.409 148.361 285.912 142.922 286.872 139.537C287.171 138.423 287.392 137.289 287.534 136.145C292.035 141.873 291.083 155.645 291.083 155.645Z" fill="#407BFF"/>
<path d="M292.988 172.482L285.696 152.989C285.63 152.795 285.563 152.602 285.51 152.401C284.38 148.361 285.882 142.922 286.842 139.537C287.141 138.423 287.362 137.289 287.504 136.145C287.746 134.266 287.892 132.376 287.943 130.483C290.451 128.63 292.407 131.725 292.407 131.725C292.407 131.725 291.753 134.188 293.553 145.184C295.354 156.181 297.831 169.997 292.988 172.482Z" stroke="#263238" stroke-width="0.744" stroke-linecap="round" stroke-linejoin="round"/>
<path d="M278.376 162.638C267.416 167.214 234.227 145.467 233.408 145.296C233.408 145.296 259.895 140.616 263.83 139.693C263.997 139.665 264.16 139.615 264.314 139.545C264.433 139.664 265.653 140.601 267.394 142.037C273.696 147.253 286.783 159.119 278.376 162.638Z" fill="white"/>
<path opacity="0.4" d="M278.376 162.638C267.416 167.214 234.227 145.467 233.408 145.296C233.408 145.296 259.895 140.616 263.83 139.693C265.011 140.432 266.199 141.214 267.394 142.037C273.696 147.252 286.783 159.119 278.376 162.638Z" fill="#407BFF"/>
<path d="M278.376 162.638C267.416 167.214 234.227 145.467 233.408 145.296C233.408 145.296 259.895 140.616 263.83 139.693C263.997 139.665 264.16 139.615 264.314 139.545C264.433 139.664 265.653 140.601 267.394 142.037C273.696 147.253 286.783 159.119 278.376 162.638Z" stroke="#263238" stroke-width="0.744" stroke-linecap="round" stroke-linejoin="round"/>
<path d="M295.324 164.126C296.128 170.495 293.658 174.066 288.591 173.099L288.018 172.98C279.142 171.083 278.004 165.875 266.636 156.612C262.7 153.391 258.846 150.816 255.558 148.517C250.35 144.849 246.503 141.866 245.997 138.101C245.179 131.934 237.583 122.991 251.763 117.649C262.417 113.646 280.623 134.203 288.591 147.305C290.005 149.614 291.272 152.009 292.386 154.477" fill="white"/>
<path opacity="0.4" d="M288.017 172.98C279.141 171.083 278.003 165.875 266.635 156.612C262.699 153.391 258.845 150.816 255.557 148.517L260.177 147.178L263.004 148.212C268.032 152.892 272.712 157.932 277.006 163.293C279.972 167.244 283.72 170.542 288.017 172.98Z" fill="#407BFF"/>
<path d="M295.324 164.126C296.128 170.495 293.658 174.066 288.591 173.099L288.018 172.98C279.142 171.083 278.004 165.875 266.636 156.612C262.7 153.391 258.846 150.816 255.558 148.517C250.35 144.849 246.503 141.866 245.997 138.101C245.179 131.934 237.583 122.991 251.763 117.649C262.417 113.646 280.623 134.203 288.591 147.305C290.005 149.614 291.272 152.009 292.386 154.477" stroke="#263238" stroke-width="0.744" stroke-linecap="round" stroke-linejoin="round"/>
<path d="M263.004 118.058C268.071 118.98 279.372 129.404 279.841 130.483C280.31 131.561 281.641 133.86 281.641 133.86H282.951C282.951 133.86 280.659 143.346 276.902 146.94C273.145 150.533 257.67 151.025 256.167 150.541C255.016 150.069 253.954 149.405 253.027 148.577L241.748 145.296L263.004 118.058Z" fill="#263238"/>
<path d="M196.967 137.9C195.784 140.333 189.936 142.26 189.527 143.428C189.094 144.334 188.423 145.106 187.585 145.66C187.327 145.378 187.184 145.009 187.184 144.626C187.184 144.243 187.327 143.874 187.585 143.592C188.53 142.528 188.634 140.251 188.634 140.251C187.83 139.881 187.002 139.563 186.157 139.299C185.874 139.232 185.271 139.12 184.565 139.001C183.151 138.756 181.321 138.466 180.845 138.339C180.282 138.137 179.773 137.809 179.357 137.379C178.404 137.454 176.946 135.467 177.817 135.601C180.147 135.875 182.502 135.875 184.832 135.601C178.776 134.113 179.349 132.625 179.349 132.625C181.246 133.615 186.625 133.927 186.625 133.927C186.625 133.927 183.382 132.529 182.816 131.792C182.696 131.613 182.623 131.407 182.605 131.192C182.586 130.977 182.623 130.761 182.712 130.564C184.221 131.4 185.825 132.052 187.489 132.506C190.395 133.099 193.39 133.122 196.305 132.573L196.967 137.9Z" fill="white"/>
<path opacity="0.4" d="M196.967 137.901C195.784 140.333 189.936 142.26 189.527 143.428C189.094 144.334 188.422 145.106 187.585 145.66C187.327 145.378 187.184 145.009 187.184 144.626C187.184 144.244 187.327 143.875 187.585 143.592C188.53 142.528 188.634 140.252 188.634 140.252C187.83 139.881 187.002 139.563 186.157 139.299C185.874 139.232 185.271 139.121 184.564 139.002C187.451 138.95 191.074 138.756 192.101 138.087C192.101 138.087 190.65 135.237 190.926 132.968C190.955 132.564 191.069 132.17 191.262 131.814C191.454 131.457 191.72 131.146 192.042 130.9C192.934 130.245 194.512 131.138 196.201 132.596H196.238L196.967 137.901Z" fill="#407BFF"/>
<path d="M196.967 137.9C195.784 140.333 189.936 142.26 189.527 143.428C189.094 144.334 188.423 145.106 187.585 145.66C187.327 145.378 187.184 145.009 187.184 144.626C187.184 144.243 187.327 143.874 187.585 143.592C188.53 142.528 188.634 140.251 188.634 140.251C187.83 139.881 187.002 139.563 186.157 139.299C185.874 139.232 185.271 139.12 184.565 139.001C183.151 138.756 181.321 138.466 180.845 138.339C180.282 138.137 179.773 137.809 179.357 137.379C178.404 137.454 176.946 135.467 177.817 135.601C180.147 135.875 182.502 135.875 184.832 135.601C178.776 134.113 179.349 132.625 179.349 132.625C181.246 133.615 186.625 133.927 186.625 133.927C186.625 133.927 183.382 132.529 182.816 131.792C182.696 131.613 182.623 131.407 182.605 131.192C182.586 130.977 182.623 130.761 182.712 130.564C184.221 131.4 185.825 132.052 187.489 132.506C190.395 133.099 193.39 133.122 196.305 132.573V132.573L196.967 137.9Z" stroke="#263238" stroke-width="0.744" stroke-linecap="round" stroke-linejoin="round"/>
<path d="M179.431 137.357C179.431 137.357 178.791 137.246 181.663 137.149C182.922 137.129 184.178 137.042 185.428 136.889" stroke="#263238" stroke-width="0.744" stroke-linecap="round" stroke-linejoin="round"/>
<path d="M309.966 103.498C311.357 103.17 315.605 100.224 317.16 98.3418C318.212 97.0033 319.101 95.5448 319.809 93.9969C319.995 94.1066 320.15 94.2619 320.259 94.448C320.368 94.6341 320.429 94.845 320.434 95.0608C320.397 95.9908 318.552 98.9965 318.552 98.9965C318.552 98.9965 322.763 95.6411 323.76 93.7439C323.76 93.7439 325.106 94.659 321.022 99.3685C323.085 98.2528 325.01 96.8995 326.758 95.3361C327.398 94.726 327.346 97.1886 326.527 97.6797C326.437 98.2658 326.213 98.8233 325.873 99.309C325.389 99.8819 322.651 102.516 322.078 103.17C321.534 103.881 321.037 104.626 320.59 105.402C320.59 105.402 321.974 107.203 323.365 107.53C323.741 107.604 324.076 107.816 324.303 108.125C324.53 108.433 324.634 108.816 324.593 109.197C323.594 109.231 322.604 108.995 321.728 108.512C320.754 107.768 314.869 109.576 312.495 108.267" fill="white"/>
<path d="M309.966 103.498C311.357 103.17 315.605 100.224 317.16 98.3418C318.212 97.0033 319.101 95.5448 319.809 93.9969C319.995 94.1066 320.15 94.2619 320.259 94.448C320.368 94.6341 320.429 94.845 320.434 95.0608C320.397 95.9908 318.552 98.9965 318.552 98.9965C318.552 98.9965 322.763 95.6411 323.76 93.7439C323.76 93.7439 325.106 94.659 321.022 99.3685C323.085 98.2528 325.01 96.8995 326.758 95.3361C327.398 94.726 327.346 97.1886 326.527 97.6797C326.437 98.2658 326.213 98.8233 325.873 99.309C325.389 99.8819 322.651 102.516 322.078 103.17C321.534 103.881 321.037 104.626 320.59 105.402C320.59 105.402 321.974 107.203 323.365 107.53C323.741 107.604 324.076 107.816 324.303 108.125C324.53 108.433 324.634 108.816 324.593 109.197C323.594 109.231 322.604 108.995 321.728 108.512C320.754 107.768 314.869 109.576 312.495 108.267" stroke="#263238" stroke-width="0.744" stroke-linecap="round" stroke-linejoin="round"/>
<path d="M314.176 108.155C314.176 108.155 295.368 118.058 291.291 118.058C285.815 118.058 269.544 127.648 269.544 127.648L263.004 111.883C263.004 111.883 277.237 109.599 281.15 109.71C285.562 109.829 288.836 105.76 296.03 105.075C305.836 104.138 311.565 103.252 311.565 103.252" fill="white"/>
<path opacity="0.4" d="M314.176 108.155C314.176 108.155 295.368 118.058 291.291 118.058C285.815 118.058 269.544 127.648 269.544 127.648L263.004 111.883C263.004 111.883 267.974 111.087 272.847 110.454C275.767 112.637 277.952 115.658 279.112 119.114C279.112 119.114 286.552 116.265 287.749 115.454C288.947 114.643 287.749 111.652 287.749 111.652C288.884 111.448 290.045 111.448 291.179 111.652C293.143 111.987 291.767 115.089 291.767 115.089C299.462 113.588 306.972 111.253 314.161 108.125L314.176 108.155Z" fill="#407BFF"/>
<path d="M314.176 108.155C314.176 108.155 295.368 118.058 291.291 118.058C285.815 118.058 269.544 127.648 269.544 127.648L263.004 111.883C263.004 111.883 277.237 109.599 281.15 109.71C285.562 109.829 288.836 105.76 296.03 105.075C305.836 104.138 311.565 103.252 311.565 103.252" stroke="#263238" stroke-width="0.744" stroke-linecap="round" stroke-linejoin="round"/>
<path d="M273.956 127.648L271.724 128.511L262.171 132.231C262.171 132.231 258.407 140.244 254.977 144.009C251.547 147.773 238.825 149.544 232.262 148.25C225.7 146.955 215.753 152.334 211.14 148.25C206.528 144.165 195.315 139.091 190.904 132.224C189.557 130.126 190.011 127.924 191.298 125.878C194.237 121.213 201.476 117.351 201.476 117.351C210.881 113.19 220.899 110.579 231.139 109.621C239.033 108.951 246.984 109.453 254.731 111.109C257.246 111.615 258.734 111.95 259.076 111.652C260.401 110.499 262.915 110.849 263.406 110.908H263.496C263.496 110.908 263.198 109.033 264.485 108.676C265.341 108.423 266.896 108.84 269.693 110.908C276.769 116.153 273.956 127.648 273.956 127.648Z" fill="#407BFF"/>
<path opacity="0.3" d="M271.738 128.511L262.185 132.231C262.185 132.231 258.421 140.244 254.991 144.009C251.561 147.773 238.824 149.544 232.261 148.249C225.699 146.955 215.752 152.334 211.139 148.249C206.527 144.165 195.314 139.091 190.903 132.224C189.556 130.126 190.01 127.923 191.297 125.877C191.297 125.877 190.903 134.292 197.777 137.112C204.652 139.932 205.217 139.812 205.217 139.812C205.217 139.812 211.69 146.806 213.751 147.788C215.812 148.77 229.739 144.619 231.019 145.177C232.299 145.735 236.904 149.358 244.456 146.903C252.007 144.448 259.276 137.58 259.172 133.072C259.107 130.447 259.207 127.82 259.47 125.208C259.47 125.208 262.446 128.184 264.082 128.459C264.082 128.459 267.014 124.27 267.415 122.567C267.415 122.567 269.008 123.385 267.869 127.641C266.731 131.896 271.537 123.75 271.537 120.416C271.56 118.028 273.048 122.76 271.738 128.511Z" fill="black" fill-opacity="0.7"/>
<path opacity="0.3" d="M254.731 111.109C253.57 112.947 250.304 115.648 241.101 115.908C227.017 116.302 226.221 112.657 226.221 112.657L231.124 109.621C239.023 108.95 246.978 109.451 254.731 111.109Z" fill="black" fill-opacity="0.7"/>
<path opacity="0.3" d="M263.375 110.93H263.464C263.464 110.93 263.167 109.056 264.454 108.698C266.284 109.792 268.613 111.548 268.605 113.386C266.947 112.397 265.195 111.575 263.375 110.93Z" fill="black" fill-opacity="0.7"/>
<path d="M273.956 127.648L271.724 128.511L262.171 132.231C262.171 132.231 258.407 140.244 254.977 144.009C251.547 147.773 238.825 149.544 232.262 148.25C225.7 146.955 215.753 152.334 211.14 148.25C206.528 144.165 195.315 139.091 190.904 132.224C189.557 130.126 190.011 127.924 191.298 125.878C194.237 121.213 201.476 117.351 201.476 117.351C210.881 113.19 220.899 110.579 231.139 109.621C239.033 108.951 246.984 109.453 254.731 111.109C257.246 111.615 258.734 111.95 259.076 111.652C260.401 110.499 262.915 110.849 263.406 110.908H263.496C263.496 110.908 263.198 109.033 264.485 108.676C265.341 108.423 266.896 108.84 269.693 110.908C276.769 116.153 273.956 127.648 273.956 127.648Z" stroke="#263238" stroke-width="0.744" stroke-linecap="round" stroke-linejoin="round"/>
<path d="M240.357 134.828C239.727 135.329 239.069 135.793 238.385 136.219C237.203 136.979 235.944 137.613 234.628 138.109C228.014 140.571 216.266 139.753 208.811 136.368C208.065 136.036 207.339 135.658 206.639 135.237C205.678 134.672 204.791 133.99 203.998 133.206C198.239 127.321 200.724 122.485 203.998 120.238C204.892 119.638 205.832 119.111 206.81 118.661C207.554 118.289 208.432 117.917 209.317 117.612C217.553 114.569 229.948 113.148 238.423 114.145C239.367 114.249 240.26 114.383 241.101 114.561C244.404 115.223 246.785 116.369 247.537 118.058C249.903 123.318 246.019 130.379 240.357 134.828Z" fill="white" stroke="#263238" stroke-width="0.744" stroke-linecap="round" stroke-linejoin="round"/>
<path d="M240.357 134.828C239.727 135.329 239.069 135.793 238.386 136.219C235.724 129.101 235.724 121.262 238.386 114.145C239.33 114.249 240.223 114.383 241.064 114.561C237.337 122.113 239.234 130.944 240.357 134.828Z" fill="#263238"/>
<path d="M208.812 136.368C208.065 136.036 207.339 135.658 206.639 135.237C206.203 129.717 206.26 124.17 206.81 118.661C207.554 118.289 208.432 117.917 209.317 117.612C207.517 124.866 208.268 132.64 208.812 136.368Z" fill="#263238"/>
<path d="M326.512 97.6799C326.512 97.6799 326.973 97.2186 324.6 98.7736C323.56 99.4838 322.482 100.137 321.371 100.73" stroke="#263238" stroke-width="0.744" stroke-linecap="round" stroke-linejoin="round"/>
<path d="M263.495 110.945C265.222 111.292 266.823 112.096 268.132 113.274C269.441 114.452 270.409 115.961 270.935 117.641C272.795 123.497 271.917 125.245 271.917 125.245" stroke="#263238" stroke-width="0.744" stroke-linecap="round" stroke-linejoin="round"/>
<path d="M259.077 111.652C259.077 111.652 257.083 116.302 257.261 119.732C257.44 123.162 260.178 127.425 260.178 127.425" stroke="#263238" stroke-width="0.744" stroke-linecap="round" stroke-linejoin="round"/>
<path d="M248.995 126.681C248.995 126.681 240.461 143.793 225.544 142.104" stroke="#263238" stroke-width="0.744" stroke-linecap="round" stroke-linejoin="round"/>
<path d="M199.43 127.425C199.43 127.425 198.76 135.609 211.906 140.341" stroke="#263238" stroke-width="0.744" stroke-linecap="round" stroke-linejoin="round"/>
<path d="M262.186 132.224C262.186 132.224 268.584 123.169 267.84 119.539" stroke="#263238" stroke-width="0.744" stroke-linecap="round" stroke-linejoin="round"/>
<g opacity="0.2">
<path d="M281.105 134.448C281.105 134.448 276.463 145.214 271.56 145.184" stroke="white" stroke-width="0.744" stroke-linecap="round" stroke-linejoin="round"/>
<path d="M270.288 131.108C270.288 131.108 271.858 141.717 266.754 145.638" stroke="white" stroke-width="0.744" stroke-linecap="round" stroke-linejoin="round"/>
</g>
<path d="M220.492 132.224C219.056 129.188 215.671 127.916 212.457 127.425C210.066 127.085 207.641 127.05 205.24 127.321L205.523 126.74L211.14 115.089C211.14 115.089 225.812 111.131 228.669 118.065" fill="white"/>
<path d="M220.492 132.224C219.056 129.188 215.671 127.916 212.457 127.425C210.066 127.085 207.641 127.05 205.24 127.321L205.523 126.74L211.14 115.089C211.14 115.089 225.812 111.131 228.669 118.065" stroke="#263238" stroke-width="0.744" stroke-linecap="round" stroke-linejoin="round"/>
<path d="M212.457 127.425C210.066 127.085 207.641 127.05 205.24 127.321L205.523 126.741C206.818 125.349 209.116 123.973 212.792 123.021C213.034 123.74 213.13 124.5 213.072 125.257C213.015 126.013 212.806 126.751 212.457 127.425Z" fill="#263238"/>
<path d="M192.115 108.304C192.115 108.304 190.523 112.441 184.832 108.631C179.14 104.822 182.964 102.077 182.964 102.077C182.964 102.077 181.104 104.413 186.007 106.385C186.007 106.385 182.287 104.897 183.775 99.9192C185.263 94.9419 192.115 108.304 192.115 108.304Z" fill="#263238"/>
<path d="M213.774 122.336C213.149 125.989 206.229 131.621 201.207 131.071C198.871 130.81 189.683 124.516 189.966 115.833C190.166 109.569 185.1 103.52 188.879 93.8036C193.47 82.0038 209.897 76.7735 219.644 87.4499C225.209 93.5433 223.327 107.106 217.992 117.507" fill="white"/>
<path d="M213.774 122.336C213.149 125.989 206.229 131.621 201.207 131.071C198.871 130.81 189.683 124.516 189.966 115.833C190.166 109.569 185.1 103.52 188.879 93.8037C193.47 82.0038 209.897 76.7735 219.644 87.4499C225.209 93.5432 223.327 107.106 217.992 117.507" stroke="#263238" stroke-width="0.744" stroke-linecap="round" stroke-linejoin="round"/>
<path d="M199.43 104.592C199.43 104.592 203.723 102.925 206.349 106.005" stroke="#263238" stroke-width="0.744" stroke-linecap="round" stroke-linejoin="round"/>
<path d="M202.368 111.66C202.368 112.471 201.974 113.148 201.498 113.148C201.022 113.148 200.642 112.478 200.65 111.66C200.657 110.841 201.051 110.172 201.52 110.172C201.989 110.172 202.368 110.856 202.368 111.66Z" fill="#263238"/>
<path d="M192.972 110.953C192.972 111.771 192.577 112.441 192.101 112.441C191.625 112.441 191.253 111.779 191.253 110.953C191.253 110.127 191.655 109.465 192.131 109.465C192.607 109.465 192.979 110.112 192.972 110.953Z" fill="#263238"/>
<path d="M192.176 105.045C192.176 105.045 189.103 102.813 187.905 105.254" stroke="#263238" stroke-width="0.744" stroke-linecap="round" stroke-linejoin="round"/>
<path d="M195.077 111.883C194.958 112.976 191.96 115.603 193.016 116.711C193.592 117.346 194.331 117.811 195.151 118.058" stroke="#263238" stroke-width="0.744" stroke-linecap="round" stroke-linejoin="round"/>
<path d="M194.184 120.863C197.214 121.365 200.32 121.151 203.253 120.238" stroke="#263238" stroke-width="0.744" stroke-linecap="round" stroke-linejoin="round"/>
<path d="M203.239 120.238C203.239 120.238 201.996 124.3 198.916 124.271C195.836 124.241 195.441 121.034 195.441 121.034" stroke="#263238" stroke-width="0.744" stroke-linecap="round" stroke-linejoin="round"/>
<path d="M209.622 100.507C209.622 100.507 211.378 107.292 214.302 109.175C216.021 110.249 217.358 111.837 218.126 113.713L219.019 118.408C219.019 118.408 226.05 123.154 229.978 119.896C233.906 116.637 236.108 117.039 236.108 117.039C236.108 117.039 235.781 115.238 232.388 115.811C232.388 115.811 239.828 116.555 238.683 109.859C237.537 103.163 213.461 90.3737 209.622 100.507Z" fill="#263238"/>
<path d="M201.476 95.0311C201.476 95.0311 197.443 94.2127 192.793 99.6886C189.75 103.275 185.301 102.88 182.727 100.306C180.153 97.7319 180.398 89.6371 176.842 89.3916C176.842 89.3916 180.517 87.4275 183.091 90.2472C183.091 90.2472 184.81 88.5286 182.972 86.3263C181.135 84.1241 183.865 78.1423 190.04 79.2137C190.04 79.2137 187.005 79.9577 189.155 81.654C189.155 81.654 193.15 76.885 198.18 77.376C203.209 77.8671 215.813 72.0341 219.012 82.1525C219.012 82.1525 223.796 80.1809 226.615 81.654C229.435 83.1271 231.526 91.2293 234.591 93.1935C237.656 95.1576 241.332 91.5939 243.906 92.2114C246.48 92.8289 248.444 95.3957 248.444 95.3957C248.444 95.3957 245.989 94.4136 244.278 95.6412C244.278 95.6412 249.3 99.324 251.755 97.1292C251.755 97.1292 250.654 108.044 241.086 109.271C241.086 109.271 245.015 110.983 250.654 109.271C246.39 112.286 241.471 114.244 236.302 114.985C228.118 116.012 229.807 110.417 216.646 108.044C212.539 107.3 212.472 101.348 212.472 101.348C212.105 102.879 211.994 104.46 212.145 106.027C212.39 108.661 214.6 110.945 216.437 110.968C216.437 110.968 211.133 111.905 208.834 108.788C204.898 103.446 206.996 96.2811 206.996 96.2811C206.996 96.2811 202.882 94.2351 197.927 99.5919C193.902 103.937 190.814 102.531 190.814 102.531C192.474 102.316 194.007 101.527 195.144 100.299C196.826 98.3419 198.708 95.0311 201.476 95.0311Z" fill="#263238"/>
<path d="M214.853 111.883C214.853 111.883 217.866 106.675 220.157 108.825C222.449 110.975 222.702 112.359 222.047 113.75C221.235 115.422 220.218 116.987 219.019 118.408C218.833 118.627 218.602 118.803 218.341 118.924C218.08 119.045 217.796 119.108 217.509 119.108C217.221 119.108 216.937 119.045 216.676 118.924C216.415 118.803 216.184 118.627 215.998 118.408" fill="white"/>
<path d="M214.853 111.883C214.853 111.883 217.866 106.675 220.157 108.825C222.449 110.975 222.702 112.359 222.047 113.75C221.235 115.422 220.218 116.987 219.019 118.408C218.833 118.627 218.602 118.803 218.341 118.924C218.08 119.045 217.796 119.108 217.509 119.108C217.221 119.108 216.937 119.045 216.676 118.924C216.415 118.803 216.184 118.627 215.998 118.408" stroke="#263238" stroke-width="0.744" stroke-linecap="round" stroke-linejoin="round"/>
<g opacity="0.2">
<path d="M208.766 92.4568C208.766 92.4568 209.295 87.3604 203.96 87.8514C197.584 88.4392 193.626 98.7213 187.905 98.7957C182.697 98.8626 184.832 92.0997 184.832 92.0997" stroke="white" stroke-width="0.744" stroke-linecap="round" stroke-linejoin="round"/>
<path d="M211.906 92.561C211.906 92.561 208.803 94.3615 209.622 98.8553C210.44 103.349 214.458 107.94 221.035 106.385C227.612 104.83 230.06 104.331 233.497 107.873C236.934 111.414 245.557 108.289 243.794 104.108" stroke="white" stroke-width="0.744" stroke-linecap="round" stroke-linejoin="round"/>
<path d="M213.282 89.6147C213.282 89.6147 216.124 100.507 225.253 99.3314C234.382 98.1559 240.535 91.9732 244.032 94.0267" stroke="white" stroke-width="0.744" stroke-linecap="round" stroke-linejoin="round"/>
<path d="M215.641 86.4228C215.641 86.4228 216.325 83.1418 220.938 86.8692C225.551 90.5967 227.805 93.2453 230.945 91.482" stroke="white" stroke-width="0.744" stroke-linecap="round" stroke-linejoin="round"/>
<path d="M212.784 87.792C212.784 87.792 215.239 85.4707 212.196 82.5319C209.153 79.5931 200.128 85.9618 193.358 85.6716C186.587 85.3815 192.167 80.7612 192.167 80.7612" stroke="white" stroke-width="0.744" stroke-linecap="round" stroke-linejoin="round"/>
<path d="M215.641 82.7475C215.641 82.7475 217.01 78.1347 211.028 76.9592" stroke="white" stroke-width="0.744" stroke-linecap="round" stroke-linejoin="round"/>
</g>
<path d="M177.511 199.534C178.306 198.885 179.231 198.416 180.224 198.16C181.216 197.903 182.253 197.864 183.262 198.046C183.706 198.079 184.137 198.212 184.523 198.434C184.909 198.656 185.24 198.961 185.492 199.328C185.744 199.695 185.91 200.114 185.979 200.554C186.048 200.994 186.017 201.443 185.889 201.87C185.889 201.87 192.131 207.167 196.967 217.494C201.803 227.82 205.039 246.264 205.039 246.264L129.106 242.544C129.106 242.544 140.921 223.684 143.399 220.15C145.876 216.616 150.839 212.234 150.839 212.234C151.097 211.541 151.533 210.929 152.102 210.458C152.671 209.986 153.354 209.673 154.083 209.548C156.731 208.96 158.814 209.25 159.395 210.135C159.553 210.463 159.635 210.821 159.635 211.185C159.635 211.548 159.553 211.906 159.395 212.234C159.395 212.234 159.596 226.749 160.965 226.98C162.333 227.21 177.474 225.737 177.474 225.737C177.474 225.737 179.2 217.843 179.594 216.348L178.56 204.243C178.56 204.243 175.212 200.769 177.511 199.534Z" fill="#263238"/>
<path d="M177.072 200.664C177.072 200.664 174.981 197.443 175.472 196.669C175.963 195.895 180.576 194.519 181.804 194.824C183.031 195.129 184.318 200.203 183.061 200.664C181.804 201.126 177.072 200.664 177.072 200.664Z" stroke="#263238" stroke-width="0.744" stroke-linecap="round" stroke-linejoin="round"/>
<path d="M158.613 210.85C158.613 210.85 160.316 208.208 159.915 207.583C159.513 206.958 155.741 205.82 154.707 206.095C153.672 206.371 152.646 210.492 153.68 210.872C154.714 211.251 158.613 210.85 158.613 210.85Z" stroke="#263238" stroke-width="0.744" stroke-linecap="round" stroke-linejoin="round"/>
<path opacity="0.4" d="M181.788 214.934C181.788 214.934 183.551 208.595 186.594 208.528" stroke="white" stroke-width="0.744" stroke-linecap="round" stroke-linejoin="round"/>
<path opacity="0.4" d="M186.595 212.97C186.595 212.97 193.387 214.555 195.523 220.142" stroke="white" stroke-width="0.744" stroke-linecap="round" stroke-linejoin="round"/>
<path opacity="0.4" d="M144.402 222.121C144.402 222.121 149.804 216.504 155.495 217.486" stroke="white" stroke-width="0.744" stroke-linecap="round" stroke-linejoin="round"/>
<path opacity="0.4" d="M153.71 210.85C153.71 210.85 156.998 209.637 158.271 212.97" stroke="white" stroke-width="0.744" stroke-linecap="round" stroke-linejoin="round"/>
<path opacity="0.4" d="M179.467 201.788C179.467 201.788 181.52 198.938 184.191 200.873" stroke="white" stroke-width="0.744" stroke-linecap="round" stroke-linejoin="round"/>
<path d="M292.444 304.921L286.492 313.886C286.664 314.366 286.863 314.835 287.087 315.292C287.883 316.959 289.505 319.645 292.109 320.865C295.733 322.569 296.64 324.63 298.746 323.975C298.923 323.926 299.094 323.862 299.259 323.781C301.744 322.606 299.862 320.642 300.673 319.072C301.484 317.502 305.077 317.048 306.387 315.798C307.696 314.548 306.922 312.822 307.607 311.215C308.291 309.608 306.536 308.12 305.606 307.741C304.676 307.361 304.787 304.363 302.801 304.765C300.814 305.167 300.487 303.381 300.063 302.949C299.639 302.518 293.449 304.393 292.444 304.921Z" fill="white"/>
<path opacity="0.4" d="M287.079 315.292C287.875 316.959 289.497 319.645 292.101 320.865C295.724 322.569 296.632 324.629 298.738 323.975C296.959 322.844 295.501 321.244 295.062 320.054C294.445 318.432 290.442 316.282 287.079 315.292Z" fill="#407BFF"/>
<path d="M292.444 304.921L286.492 313.886C286.664 314.366 286.863 314.835 287.087 315.292C287.883 316.959 289.505 319.645 292.109 320.865C295.733 322.569 296.64 324.63 298.746 323.975C298.923 323.926 299.094 323.862 299.259 323.781C301.744 322.606 299.862 320.642 300.673 319.072C301.484 317.502 305.077 317.048 306.387 315.798C307.696 314.548 306.922 312.822 307.607 311.215C308.291 309.608 306.536 308.12 305.606 307.741C304.676 307.361 304.787 304.363 302.801 304.765C300.814 305.167 300.487 303.381 300.063 302.949C299.639 302.518 293.449 304.393 292.444 304.921Z" stroke="#263238" stroke-width="0.744" stroke-linecap="round" stroke-linejoin="round"/>
<path d="M294.624 305.992L278.613 298.18C274.611 296.224 266.196 292.4 261.977 290.301C260.756 289.648 259.414 289.248 258.034 289.126C256.398 289.022 255.311 289.468 254.106 289.319C252.149 289.074 237.619 288.613 237.619 288.613L235.104 297.823L230.008 316.535L235.365 314.742L255.936 307.845C255.936 307.845 263.86 311.342 271.694 311.252C277.907 311.178 285.607 314.534 288.538 315.932C289.282 316.297 289.744 316.527 289.744 316.527" fill="white"/>
<path opacity="0.4" d="M237.626 288.613L235.104 297.823L235.364 314.742L255.936 307.845C255.936 307.845 263.859 311.342 271.693 311.252C277.906 311.178 285.606 314.534 288.538 315.932C283.716 312.264 275.19 309.139 271.753 309.035C266.374 308.879 260.169 303.589 260.169 303.589C257.565 306.454 252.893 306.297 252.893 306.297C259.38 298.902 259.105 292.682 258.034 289.126C256.397 289.022 255.311 289.468 254.105 289.319C252.156 289.074 237.626 288.613 237.626 288.613Z" fill="#407BFF"/>
<path d="M294.624 305.992L278.613 298.18C274.611 296.224 266.196 292.4 261.977 290.301C260.756 289.648 259.414 289.248 258.034 289.126C256.398 289.022 255.311 289.468 254.106 289.319C252.149 289.074 237.619 288.613 237.619 288.613L235.104 297.823L230.008 316.535L235.365 314.742L255.936 307.845C255.936 307.845 263.86 311.342 271.694 311.252C277.907 311.178 285.607 314.534 288.538 315.932C289.282 316.297 289.744 316.527 289.744 316.527" stroke="#263238" stroke-width="0.744" stroke-linecap="round" stroke-linejoin="round"/>
<path d="M52.0794 232.82V243.586C51.6723 243.891 51.2475 244.172 50.8072 244.427C49.2225 245.371 46.3432 246.711 43.5383 246.287C39.5802 245.699 37.683 246.911 36.2917 245.208C36.174 245.067 36.067 244.918 35.9718 244.761C34.5508 242.403 37.2069 241.785 37.4003 240.052C37.5937 238.318 34.8484 235.93 34.4243 234.167C34.0002 232.403 35.6073 231.414 35.9123 229.703C36.2173 227.992 38.5163 227.716 39.4984 227.917C40.4805 228.118 42.0503 225.559 43.4788 227.002C44.9073 228.445 46.1721 227.129 46.7598 227.002C47.3476 226.876 51.5065 231.823 52.0794 232.82Z" fill="white"/>
<path opacity="0.4" d="M50.7772 244.426C49.1924 245.371 46.3132 246.71 43.5083 246.286C39.5502 245.699 37.653 246.911 36.2617 245.208C38.3672 245.245 40.4653 244.724 41.4697 243.973C42.9205 242.938 47.4292 243.385 50.7772 244.426Z" fill="#407BFF"/>
<path d="M52.0794 232.82V243.586C51.6723 243.891 51.2475 244.172 50.8072 244.427C49.2225 245.371 46.3432 246.711 43.5383 246.287C39.5802 245.699 37.683 246.911 36.2917 245.208C36.174 245.067 36.067 244.918 35.9718 244.761C34.5508 242.403 37.2069 241.785 37.4003 240.052C37.5937 238.318 34.8484 235.93 34.4243 234.167C34.0002 232.403 35.6073 231.414 35.9123 229.703C36.2173 227.992 38.5163 227.716 39.4984 227.917C40.4805 228.118 42.0503 225.559 43.4788 227.002C44.9073 228.445 46.1721 227.129 46.7598 227.002C47.3476 226.876 51.5065 231.823 52.0794 232.82Z" stroke="#263238" stroke-width="0.744" stroke-linecap="round" stroke-linejoin="round"/>
<path d="M49.6318 232.5L67.2944 234.851C71.7063 235.439 80.8352 236.912 85.5075 237.5C86.8868 237.629 88.2257 238.037 89.4433 238.698C90.8643 239.516 91.5265 240.491 92.6053 241.034C94.376 241.912 106.741 249.567 106.741 249.567L103.728 258.629L97.6198 277.036L94.1528 272.572L80.8426 255.46C80.8426 255.46 72.3089 253.972 65.8287 249.575C60.6951 246.078 52.4367 244.612 49.2077 244.151C48.367 244.032 47.876 243.98 47.876 243.98" fill="white"/>
<path opacity="0.4" d="M106.734 249.568L103.721 258.63L94.1452 272.58L80.8351 255.468C80.8351 255.468 72.3014 253.98 65.8212 249.582C60.6876 246.086 52.4292 244.62 49.2002 244.159C55.2489 243.772 64.0802 245.892 66.9967 247.708C71.5648 250.55 79.6447 249.582 79.6447 249.582C80.2324 253.407 84.2054 255.862 84.2054 255.862C82.896 246.108 86.5713 241.086 89.4134 238.713C90.8344 239.531 91.4966 240.506 92.5754 241.049C94.3759 241.912 106.734 249.568 106.734 249.568Z" fill="#407BFF"/>
<path d="M49.6318 232.5L67.2944 234.851C71.7063 235.439 80.8352 236.912 85.5075 237.5C86.8868 237.629 88.2257 238.037 89.4433 238.698C90.8643 239.516 91.5265 240.491 92.6053 241.034C94.376 241.912 106.741 249.567 106.741 249.567L103.728 258.629L97.6198 277.036L94.1528 272.572L80.8426 255.46C80.8426 255.46 72.3089 253.972 65.8287 249.575C60.6951 246.078 52.4367 244.612 49.2077 244.151C48.367 244.032 47.876 243.98 47.876 243.98" stroke="#263238" stroke-width="0.744" stroke-linecap="round" stroke-linejoin="round"/>
<path d="M118.987 251.182L113.132 295.822L112.849 298.002C112.849 298.002 98.2076 286.343 89.0415 271.277C88.543 270.451 88.0966 269.648 87.7097 268.852C81.0137 255.14 90.9982 246.078 99.9039 243.333C109.315 240.431 105.469 246.271 105.469 246.271C112.217 245.356 118.987 251.182 118.987 251.182Z" fill="#757575"/>
<path opacity="0.3" d="M113.132 295.837L112.85 298.017C112.85 298.017 98.2076 286.358 89.0415 271.292C88.543 270.466 88.0966 269.663 87.7098 268.867C87.0104 265.221 86.6384 261.91 87.2262 260.683C88.796 257.342 93.699 255.869 93.699 255.869C93.699 255.869 95.5813 277.155 100.172 283.479C103.358 287.697 107.007 291.545 111.049 294.951L113.132 295.837Z" fill="black" fill-opacity="0.7"/>
<path d="M118.987 251.182L113.132 295.822L112.849 298.002C112.849 298.002 98.2076 286.343 89.0415 271.277C88.543 270.451 88.0966 269.648 87.7097 268.852C81.0137 255.14 90.9982 246.078 99.9039 243.333C109.315 240.431 105.469 246.271 105.469 246.271C112.217 245.356 118.987 251.182 118.987 251.182Z" stroke="#263238" stroke-width="0.744" stroke-linecap="round" stroke-linejoin="round"/>
<path d="M250.631 309.162C247.935 311.444 244.819 313.178 241.458 314.266C229.643 318.246 200.649 321.408 200.649 321.408L202.309 318.224L221.913 280.548C221.913 280.548 245.453 282.623 250.111 287.147C250.111 287.147 249.523 280.198 254.805 290.279C258.488 297.31 256.293 304.251 250.631 309.162Z" fill="#757575"/>
<path opacity="0.3" d="M250.631 309.162C247.935 311.444 244.819 313.178 241.458 314.266C229.643 318.246 200.649 321.408 200.649 321.408L202.309 318.224C212.464 316.58 227.233 313.373 230.878 310.219C236.086 305.755 234.598 310.687 234.598 310.687C234.598 310.687 243.816 303.433 245.974 297.935C248.131 292.437 249.947 291.678 250.609 295.301C251.05 297.723 250.956 300.211 250.334 302.593C249.712 304.974 248.577 307.191 247.008 309.088C245.148 311.32 247.544 310.896 250.631 309.162Z" fill="black" fill-opacity="0.7"/>
<path d="M250.631 309.162C247.935 311.444 244.819 313.178 241.458 314.266C229.643 318.246 200.649 321.408 200.649 321.408L202.309 318.224L221.913 280.548C221.913 280.548 245.453 282.623 250.111 287.147C250.111 287.147 249.523 280.198 254.805 290.279C258.488 297.31 256.293 304.251 250.631 309.162Z" stroke="#263238" stroke-width="0.744" stroke-linecap="round" stroke-linejoin="round"/>
<path d="M101.288 280.548C94.5921 265.824 115.208 248.63 115.208 248.63L123.504 247.261C124.352 233.378 153.167 221.169 162.809 220.217C178.151 218.729 208.729 239.338 216.154 250.036C223.579 260.735 220.663 273.844 220.663 273.844C220.663 273.844 238.772 288.404 239.873 298.002C240.974 307.6 209.369 329.347 174.401 319.199C139.433 309.05 116.748 314.37 101.288 280.548Z" fill="#757575"/>
<path opacity="0.3" d="M172.757 236.86C153.524 233.088 133.964 246.859 133.964 246.859C130.907 246.792 125.297 247.216 122.135 247.484L123.474 247.261C123.772 242.373 127.536 237.693 132.707 233.646C142.997 229.524 156.322 225.774 157.378 226.511C158.866 227.53 147.922 233.095 144.99 234.561C159.126 227.761 169.289 231.845 172.757 233.966C176.224 236.086 172.757 236.86 172.757 236.86Z" fill="black" fill-opacity="0.7"/>
<path opacity="0.3" d="M220.641 273.837C218.602 272.185 215.701 270.035 213.26 269.045C213.26 269.045 210.731 258.302 189.534 246.859C189.534 246.859 187.116 243.957 187.495 242.596C188.396 239.345 205.701 248.414 206.162 248.652C205.895 248.384 200.143 242.589 204.28 242.336C207.256 242.157 214.696 249.582 219.368 256.405C221.254 262.015 221.691 268.011 220.641 273.837Z" fill="black" fill-opacity="0.7"/>
<path opacity="0.3" d="M159.96 249.567C159.96 249.567 180.502 252.648 196.9 260.846C196.9 260.846 184.557 248.756 175.049 246.368C165.54 243.98 157.193 244.225 156.672 246.257C156.151 248.288 159.96 249.567 159.96 249.567Z" fill="black" fill-opacity="0.7"/>
<path opacity="0.3" d="M193.083 319.325C197.621 319.325 222.709 315.203 229.829 310.947C217.925 319.087 196.855 325.738 174.401 319.213C144.09 310.412 122.976 313.261 107.82 292.05C109.703 293.835 111.034 294.929 111.034 294.929L129.106 302.704C129.106 302.704 118.579 283.3 138.406 285.421C158.234 287.541 176.134 313.581 176.134 313.581C176.134 313.581 184.928 312.919 183.574 314.749C182.22 316.579 178.582 317.204 178.582 317.204C178.582 317.204 188.284 319.325 193.083 319.325Z" fill="black" fill-opacity="0.7"/>
<path opacity="0.3" d="M232.611 308.894C232.075 309.326 231.517 309.75 230.93 310.174C231.455 309.703 232.017 309.275 232.611 308.894Z" fill="black" fill-opacity="0.7"/>
<path d="M101.288 280.548C94.5921 265.824 115.208 248.63 115.208 248.63L123.504 247.261C124.352 233.378 153.167 221.169 162.809 220.217C178.151 218.729 208.729 239.338 216.154 250.036C223.579 260.735 220.663 273.844 220.663 273.844C220.663 273.844 238.772 288.404 239.873 298.002C240.974 307.6 209.369 329.347 174.401 319.199C139.433 309.05 116.748 314.37 101.288 280.548Z" stroke="#263238" stroke-width="0.744" stroke-linecap="round" stroke-linejoin="round"/>
<path d="M164.862 316.713C164.862 316.713 179.11 319.027 185.159 313.581" stroke="#263238" stroke-width="0.744" stroke-linecap="round" stroke-linejoin="round"/>
<path d="M220.632 273.859C220.632 273.859 214.755 268.108 204.16 266.047" stroke="#263238" stroke-width="0.744" stroke-linecap="round" stroke-linejoin="round"/>
<path d="M188.686 234.911C194.424 238.28 199.896 242.083 205.054 246.286" stroke="#263238" stroke-width="0.744" stroke-linecap="round" stroke-linejoin="round"/>
<path d="M141.032 236.785C154.752 228.408 172.608 223.2 186.081 233.43" stroke="#263238" stroke-width="0.744" stroke-linecap="round" stroke-linejoin="round"/>
<path d="M134.663 240.587C135.898 239.843 137.133 239.099 138.383 238.355" stroke="#263238" stroke-width="0.744" stroke-linecap="round" stroke-linejoin="round"/>
<path d="M195.538 250.326C203.774 255.445 212.546 262.007 216.802 270.994" stroke="#263238" stroke-width="0.744" stroke-linecap="round" stroke-linejoin="round"/>
<path d="M186.595 245.371C188.827 246.428 190.962 247.603 193.082 248.846" stroke="#263238" stroke-width="0.744" stroke-linecap="round" stroke-linejoin="round"/>
<path d="M215.544 253.838C215.544 253.838 220.625 263.279 220.633 273.859" stroke="#263238" stroke-width="0.744" stroke-linecap="round" stroke-linejoin="round"/>
<path d="M143.086 247.908C145.107 248.319 147.096 248.873 149.038 249.567" stroke="#263238" stroke-width="0.744" stroke-linecap="round" stroke-linejoin="round"/>
<path d="M115.208 248.63C123.212 246.707 131.501 246.269 139.663 247.336" stroke="#263238" stroke-width="0.744" stroke-linecap="round" stroke-linejoin="round"/>
<path d="M154.841 237.336C147.33 239.147 140.241 242.394 133.964 246.896" stroke="#263238" stroke-width="0.744" stroke-linecap="round" stroke-linejoin="round"/>
<path d="M175.472 237.649C169.944 235.67 163.501 235.796 157.802 236.726" stroke="#263238" stroke-width="0.744" stroke-linecap="round" stroke-linejoin="round"/>
<path d="M248.161 300.211C243.042 308.842 234.62 314.883 225.156 317.971" stroke="#263238" stroke-width="0.744" stroke-linecap="round" stroke-linejoin="round"/>
<path d="M251.471 292.66C250.979 294.487 250.29 296.256 249.418 297.935" stroke="#263238" stroke-width="0.744" stroke-linecap="round" stroke-linejoin="round"/>
<path d="M228.847 281.344C228.847 281.344 239.672 283.219 243.206 289.528" stroke="#263238" stroke-width="0.744" stroke-linecap="round" stroke-linejoin="round"/>
<path d="M105.454 246.264C105.454 246.264 97.6125 245.572 94.8672 251.041" stroke="#263238" stroke-width="0.744" stroke-linecap="round" stroke-linejoin="round"/>
<path d="M95.4545 264.261C94.9188 276.076 100.305 286.901 109.486 294.245" stroke="#263238" stroke-width="0.744" stroke-linecap="round" stroke-linejoin="round"/>
<path d="M96.823 255.936C96.2426 257.822 95.8489 259.761 95.6475 261.724" stroke="#263238" stroke-width="0.744" stroke-linecap="round" stroke-linejoin="round"/>
<path d="M187.487 289.684C180.047 279.744 166.655 276.768 154.751 277.036" stroke="#263238" stroke-width="0.744" stroke-linecap="round" stroke-linejoin="round"/>
<path d="M192.383 298.017C191.559 295.827 190.459 293.752 189.109 291.842" stroke="#263238" stroke-width="0.744" stroke-linecap="round" stroke-linejoin="round"/>
<path d="M165.912 315.322C161.194 315.101 156.51 314.421 151.924 313.291C150.64 312.988 149.417 312.669 148.257 312.331C120.379 304.296 127.023 288.263 135.556 283.464C149.767 275.481 170.1 283.077 180.821 293.196C192.093 303.827 186.744 316.059 165.912 315.322Z" fill="white" stroke="#263238" stroke-width="0.744" stroke-linecap="round" stroke-linejoin="round"/>
<path d="M165.911 315.322C161.194 315.101 156.509 314.421 151.924 313.291C150.639 312.988 149.416 312.668 148.256 312.331C150.373 308.91 152.796 305.688 155.495 302.704C156.038 303.135 167.042 307.83 165.911 315.322Z" fill="#263238"/>
<path d="M164.907 308.254C164.907 314.124 155.979 326.207 141.233 326.11C133.049 326.066 124.999 312.949 124.292 294.959C123.734 280.823 117.016 264.619 134.418 252.789C151.939 240.885 175.472 250.2 175.472 276.225C175.472 284.669 174.624 292.377 172.585 299.103" fill="white"/>
<path d="M164.907 308.254C164.907 314.124 155.979 326.207 141.233 326.11C133.049 326.066 124.999 312.949 124.292 294.959C123.734 280.823 117.016 264.619 134.418 252.789C151.939 240.885 175.472 250.2 175.472 276.225C175.472 284.669 174.624 292.377 172.585 299.103" stroke="#263238" stroke-width="0.744" stroke-linecap="round" stroke-linejoin="round"/>
<path d="M140.459 284.58C140.459 284.58 148.189 282.237 153.263 286.916" stroke="#263238" stroke-width="0.744" stroke-linecap="round" stroke-linejoin="round"/>
<path d="M130.311 283.992C130.311 283.992 127.045 281.016 123.005 282.437" stroke="#263238" stroke-width="0.744" stroke-linecap="round" stroke-linejoin="round"/>
<path d="M146.865 294.26C146.865 295.643 146.188 296.759 145.377 296.752C144.566 296.745 143.889 295.621 143.934 294.237C143.978 292.853 144.611 291.737 145.422 291.745C146.233 291.752 146.873 292.876 146.865 294.26Z" fill="#263238"/>
<path d="M129.581 292.675C129.581 294.051 128.904 295.167 128.093 295.16C127.282 295.152 126.643 294.029 126.657 292.645C126.672 291.261 127.335 290.145 128.145 290.153C128.956 290.16 129.589 291.291 129.581 292.675Z" fill="#263238"/>
<path d="M131.762 286.916C131.93 289.679 131.93 292.449 131.762 295.212C131.248 300.018 128.987 303.396 129.835 304.452C130.943 305.873 136.323 306.357 136.323 306.357" stroke="#263238" stroke-width="0.744" stroke-linecap="round" stroke-linejoin="round"/>
<path d="M132.982 309.98C132.982 309.98 142.759 311.885 150.28 308.983C150.28 308.983 151.999 311.342 147.304 313.789C142.61 316.237 135.341 316.326 134.887 310.813" stroke="#263238" stroke-width="0.744" stroke-linecap="round" stroke-linejoin="round"/>
<path d="M153.264 276.128C153.264 276.128 156.649 285.689 160.756 289.171L162.244 294.245C162.244 294.245 165.383 288.932 169.007 291.589C172.63 294.245 171.41 302.704 171.41 302.704C171.41 302.704 182.57 297.392 182.778 291.35C182.874 287.851 183.684 284.407 185.159 281.232C185.159 281.232 182.741 282.207 181.774 284C181.774 284 187.093 272.512 183.708 269.611C180.323 266.709 153.264 276.128 153.264 276.128Z" fill="#407BFF"/>
<path opacity="0.3" d="M153.264 276.128C153.264 276.128 156.649 285.689 160.756 289.171L162.244 294.245C162.244 294.245 165.383 288.932 169.007 291.589C172.63 294.245 171.41 302.704 171.41 302.704C171.41 302.704 182.57 297.392 182.778 291.35C182.874 287.851 183.684 284.407 185.159 281.232C185.159 281.232 182.741 282.207 181.774 284C181.774 284 187.093 272.512 183.708 269.611C180.323 266.709 153.264 276.128 153.264 276.128Z" fill="black" fill-opacity="0.7"/>
<path d="M153.264 276.128C153.264 276.128 156.649 285.689 160.756 289.171L162.244 294.245C162.244 294.245 165.383 288.932 169.007 291.589C172.63 294.245 171.41 302.704 171.41 302.704C171.41 302.704 182.57 297.392 182.778 291.35C182.874 287.851 183.684 284.407 185.159 281.232C185.159 281.232 182.741 282.207 181.774 284C181.774 284 187.093 272.512 183.708 269.611C180.323 266.709 153.264 276.128 153.264 276.128Z" stroke="#263238" stroke-width="0.744" stroke-linecap="round" stroke-linejoin="round"/>
<path d="M182.503 276.366L170.375 280.555C163.851 281.99 157.082 281.881 150.607 280.235C140.191 277.378 134.425 272.185 133.235 271.039L133.004 270.808C133.748 273.71 136.345 277.333 136.345 277.333C128.823 276.589 125.021 269.149 125.021 269.149C122.365 272.535 122.789 280.027 122.789 280.027C118.392 269.231 122.573 263.592 122.573 263.592C120.855 254.664 124.061 251.271 124.061 251.271L126.688 252.96C131.486 242.328 145.429 242.626 145.429 242.626L143.39 244.984C154.989 239.672 179.147 244.984 179.147 244.984L180.36 255.132L184.221 253.927C184.333 254.21 184.437 254.507 184.526 254.805C185.604 258.49 186.231 262.293 186.394 266.129C186.394 266.203 186.394 266.248 186.394 266.248L187.792 265.288L190.255 263.592C190.255 263.592 190.463 270.816 182.503 276.366Z" fill="#407BFF"/>
<path opacity="0.3" d="M157.378 269.045C178.21 271.493 184.326 255.252 184.497 254.775C185.574 258.461 186.201 262.263 186.364 266.099C172.124 274.134 157.378 269.045 157.378 269.045Z" fill="black" fill-opacity="0.7"/>
<path opacity="0.3" d="M182.503 276.366L170.376 280.555C163.851 281.99 157.082 281.881 150.608 280.235C140.192 277.378 134.426 272.185 133.235 271.039C132.795 270.419 132.409 269.762 132.082 269.075C132.387 269.618 137.082 277.43 157.378 280.131C178.426 282.928 190.233 263.562 190.233 263.562C190.233 263.562 190.464 270.816 182.503 276.366Z" fill="black" fill-opacity="0.7"/>
<path opacity="0.3" d="M136.322 253.838C136.322 253.838 138.651 248.154 148.226 245.371C148.226 245.371 139.581 245.743 135.459 251.822C135.459 251.822 135.281 249.106 136.3 247.693C136.3 247.693 130.229 247.38 129.083 255.958C129.083 255.958 125.698 256.598 124.359 254.768C124.359 254.768 122.871 259.485 128.079 260.847C128.079 260.847 124.723 265.095 129.612 271.054C129.612 271.054 128.972 265.66 131.1 262.082C131.1 262.082 131.538 268.13 141.716 270.377C141.716 270.377 132.885 265.824 134.626 258.213C134.626 258.213 137.438 265.444 149.886 265.006C149.886 265.006 138.517 261.672 136.999 255.847C139.812 254.578 142.946 254.202 145.98 254.768C145.98 254.768 140.504 252.707 136.322 253.838Z" fill="black" fill-opacity="0.7"/>
<path d="M182.503 276.366L170.375 280.555C163.851 281.99 157.082 281.881 150.607 280.235C140.191 277.378 134.425 272.185 133.235 271.039L133.004 270.808C133.748 273.71 136.345 277.333 136.345 277.333C128.823 276.589 125.021 269.149 125.021 269.149C122.365 272.535 122.789 280.027 122.789 280.027C118.392 269.231 122.573 263.592 122.573 263.592C120.855 254.664 124.061 251.271 124.061 251.271L126.688 252.96C131.486 242.328 145.429 242.626 145.429 242.626L143.39 244.984C154.989 239.672 179.147 244.984 179.147 244.984L180.36 255.132L184.221 253.927C184.333 254.21 184.437 254.507 184.526 254.805C185.604 258.49 186.231 262.293 186.394 266.129C186.394 266.203 186.394 266.248 186.394 266.248L187.792 265.288L190.255 263.592C190.255 263.592 190.463 270.816 182.503 276.366Z" stroke="#263238" stroke-width="0.744" stroke-linecap="round" stroke-linejoin="round"/>
<path d="M164.862 292.66C164.862 292.66 168.731 284.409 172.838 286.916C176.945 289.423 176.417 294.192 175.472 296.633C174.527 299.073 170.182 310.434 166.313 303.909" fill="white"/>
<path d="M164.862 292.66C164.862 292.66 168.731 284.409 172.838 286.916C176.945 289.423 176.417 294.192 175.472 296.633C174.527 299.073 170.182 310.434 166.313 303.909" stroke="#263238" stroke-width="0.744" stroke-linecap="round" stroke-linejoin="round"/>
<path d="M129.649 260.846C127.551 262.059 126.673 268.465 131.137 272.914" stroke="#263238" stroke-width="0.744" stroke-linecap="round" stroke-linejoin="round"/>
<path d="M132.982 259.872C132.982 268.339 147.795 275.615 164.863 274.142C181.93 272.669 183.552 268.465 183.552 268.465" stroke="#263238" stroke-width="0.744" stroke-linecap="round" stroke-linejoin="round"/>
<path d="M138.228 258.399C143.525 266.88 172.794 268.993 177.511 253.838" stroke="#263238" stroke-width="0.744" stroke-linecap="round" stroke-linejoin="round"/>
<path d="M132.982 255.847C130.906 255.192 132.238 249.076 137.342 246.286" stroke="#263238" stroke-width="0.744" stroke-linecap="round" stroke-linejoin="round"/>
<path d="M124.493 252.804C123.749 254.813 125.341 260.013 129.359 258.986" stroke="#263238" stroke-width="0.744" stroke-linecap="round" stroke-linejoin="round"/>
<path opacity="0.3" d="M187.771 265.258L190.233 263.562C189.415 264.18 188.596 264.745 187.771 265.258Z" fill="black" fill-opacity="0.7"/>
</svg>
