<svg width="125" height="26" viewBox="0 0 125 26" fill="none" xmlns="http://www.w3.org/2000/svg">
<path fill-rule="evenodd" clip-rule="evenodd" d="M10.5415 11.9455C10.2877 11.938 10.1088 11.7262 10.1255 11.4741L10.1442 11.1896C10.1577 10.9857 10.2947 10.8124 10.4766 10.7324H14.5316C15.7493 10.7324 16.7365 9.74526 16.7365 8.52752C16.7365 7.30977 15.7493 6.32259 14.5316 6.32259H11.8751C10.2702 6.29845 8.4256 6.27905 7.57209 6.27154C7.3112 6.26925 7.1005 6.06549 7.08889 5.80651L7.08156 5.64286C7.06931 5.36976 7.28266 5.14022 7.55781 5.13623C9.2318 5.11198 14.3434 5.06754 14.799 5.12809C15.3244 5.19792 15.8269 5.38296 16.2687 5.66934C16.7105 5.95571 17.0802 6.33599 17.35 6.78167C17.6199 7.22735 17.7829 7.72688 17.8268 8.24281C17.8707 8.75873 17.7945 9.27768 17.6038 9.76075C17.4131 10.2438 17.1128 10.6785 16.7255 11.0322C16.3382 11.3858 15.874 11.6493 15.3675 11.803C14.9352 11.9341 11.7814 11.9822 10.5415 11.9455Z" fill="#155EEF"/>
<path fill-rule="evenodd" clip-rule="evenodd" d="M7.18204 15.7309C7.18883 15.5141 7.3587 15.3498 7.57304 15.3289L7.83065 15.3038C8.13866 15.2738 8.41101 15.5472 8.40966 15.859C8.40804 16.2316 8.42233 16.6814 8.44294 17.0589L8.44294 17.1329C8.44294 17.257 8.45307 17.3787 8.47254 17.4973C8.47639 17.5427 8.48029 17.5847 8.4842 17.6227C8.4941 17.6449 8.50313 17.6651 8.51137 17.6835C8.75659 18.6501 9.63241 19.3652 10.6752 19.3652C11.9081 19.3652 12.9075 18.3657 12.9075 17.1329L12.9075 12.602C12.9639 12.4056 13.142 12.2619 13.355 12.2587L13.5477 12.2559C13.8074 12.2521 14.0226 12.4595 14.0278 12.7209C14.0524 13.9607 14.093 17.0221 14.034 17.4669C13.9642 17.9937 13.7791 18.4974 13.4928 18.9402C13.2064 19.3831 12.8261 19.7537 12.3804 20.0242C11.9348 20.2947 11.4352 20.4581 10.9193 20.5021C10.4034 20.5462 9.88443 20.4697 9.40136 20.2785C8.91829 20.0874 8.48363 19.7864 8.12995 19.3982C7.77628 19.0099 7.51276 18.5445 7.35916 18.0369C7.23245 17.6181 7.16015 16.4294 7.18204 15.7309Z" fill="#155EEF"/>
<rect x="10.1221" y="11.1001" width="1.10246" height="6.61477" rx="0.489983" fill="#155EEF"/>
<path d="M13.5344 7.91504C13.805 7.91504 14.0244 8.13441 14.0244 8.40502L14.0244 9.9864C14.0244 10.257 13.805 10.4764 13.5344 10.4764L13.4076 10.4764C13.1441 10.4764 12.9278 10.268 12.9179 10.0047L12.9005 9.53593C12.8907 9.2743 12.677 9.06656 12.4152 9.06423L7.65028 9.02182C7.38138 9.01943 7.16465 8.80077 7.16465 8.53186L7.16465 8.40502C7.16465 8.13441 7.38403 7.91504 7.65464 7.91504L13.5344 7.91504Z" fill="#155EEF"/>
<path d="M29.424 19.24C28.544 19.24 27.8107 19.0107 27.224 18.552C26.6427 18.0933 26.2347 17.4747 26 16.696L27.904 16.24C27.9627 16.5653 28.1333 16.8453 28.416 17.08C28.6987 17.3147 29.0107 17.432 29.352 17.432C29.576 17.432 29.8133 17.3733 30.064 17.256C30.3147 17.1333 30.5013 16.9387 30.624 16.672C30.6987 16.5013 30.7413 16.2987 30.752 16.064C30.768 15.824 30.776 15.5467 30.776 15.232V7.48H32.728V15.232C32.728 15.5893 32.7253 15.904 32.72 16.176C32.72 16.4427 32.6933 16.696 32.64 16.936C32.592 17.1707 32.4933 17.4133 32.344 17.664C32.0293 18.208 31.6187 18.608 31.112 18.864C30.6053 19.1147 30.0427 19.24 29.424 19.24ZM38.0556 19.248C37.4156 19.248 36.8876 19.1413 36.4716 18.928C36.0556 18.7147 35.725 18.4427 35.4796 18.112C35.2343 17.7813 35.053 17.4293 34.9356 17.056C34.8183 16.6827 34.741 16.3307 34.7036 16C34.6716 15.664 34.6556 15.392 34.6556 15.184V10.36H36.6076V14.52C36.6076 14.7867 36.6263 15.088 36.6636 15.424C36.701 15.7547 36.7863 16.0747 36.9196 16.384C37.0583 16.688 37.261 16.9387 37.5276 17.136C37.7996 17.3333 38.165 17.432 38.6236 17.432C38.869 17.432 39.1116 17.392 39.3516 17.312C39.5916 17.232 39.8076 17.096 39.9996 16.904C40.197 16.7067 40.3543 16.4373 40.4716 16.096C40.589 15.7547 40.6476 15.3227 40.6476 14.8L41.7916 15.288C41.7916 16.024 41.6476 16.6907 41.3596 17.288C41.077 17.8853 40.6583 18.3627 40.1036 18.72C39.549 19.072 38.8663 19.248 38.0556 19.248ZM40.8796 19V16.32H40.6476V10.36H42.5836V19H40.8796ZM47.8473 19.24C46.7806 19.24 45.9139 19 45.2473 18.52C44.5806 18.04 44.1753 17.3653 44.0313 16.496L45.9993 16.192C46.1006 16.6187 46.3246 16.9547 46.6713 17.2C47.0179 17.4453 47.4553 17.568 47.9833 17.568C48.4473 17.568 48.8046 17.4773 49.0553 17.296C49.3113 17.1093 49.4393 16.856 49.4393 16.536C49.4393 16.3387 49.3913 16.1813 49.2953 16.064C49.2046 15.9413 49.0019 15.824 48.6873 15.712C48.3726 15.6 47.8899 15.4587 47.2393 15.288C46.5139 15.096 45.9379 14.8907 45.5113 14.672C45.0846 14.448 44.7779 14.184 44.5913 13.88C44.4046 13.576 44.3113 13.208 44.3113 12.776C44.3113 12.2373 44.4526 11.768 44.7353 11.368C45.0179 10.968 45.4126 10.6613 45.9193 10.448C46.4259 10.2293 47.0233 10.12 47.7113 10.12C48.3833 10.12 48.9779 10.224 49.4953 10.432C50.0179 10.64 50.4393 10.936 50.7593 11.32C51.0793 11.704 51.2766 12.1547 51.3513 12.672L49.3833 13.024C49.3353 12.656 49.1673 12.3653 48.8793 12.152C48.5966 11.9387 48.2179 11.8187 47.7433 11.792C47.2899 11.7653 46.9246 11.8347 46.6473 12C46.3699 12.16 46.2313 12.3867 46.2313 12.68C46.2313 12.8453 46.2873 12.9867 46.3993 13.104C46.5113 13.2213 46.7353 13.3387 47.0713 13.456C47.4126 13.5733 47.9193 13.7173 48.5913 13.888C49.2793 14.064 49.8286 14.2667 50.2393 14.496C50.6553 14.72 50.9539 14.9893 51.1353 15.304C51.3219 15.6187 51.4153 16 51.4153 16.448C51.4153 17.3173 51.0979 18 50.4633 18.496C49.8339 18.992 48.9619 19.24 47.8473 19.24ZM57.9115 19C57.3408 19.1067 56.7808 19.152 56.2315 19.136C55.6875 19.1253 55.1995 19.0267 54.7675 18.84C54.3355 18.648 54.0075 18.3467 53.7835 17.936C53.5862 17.5627 53.4822 17.1813 53.4715 16.792C53.4608 16.4027 53.4555 15.9627 53.4555 15.472V7.96H55.3755V15.36C55.3755 15.7067 55.3782 16.0107 55.3835 16.272C55.3942 16.5333 55.4502 16.7467 55.5515 16.912C55.7435 17.232 56.0502 17.4107 56.4715 17.448C56.8928 17.4853 57.3728 17.464 57.9115 17.384V19ZM51.8875 11.872V10.36H57.9115V11.872H51.8875ZM62.3325 19V7.48H67.0925C67.2045 7.48 67.3485 7.48533 67.5245 7.496C67.7005 7.50133 67.8632 7.51733 68.0125 7.544C68.6792 7.64533 69.2285 7.86667 69.6605 8.208C70.0978 8.54933 70.4205 8.98133 70.6285 9.504C70.8418 10.0213 70.9485 10.5973 70.9485 11.232C70.9485 11.8613 70.8418 12.4373 70.6285 12.96C70.4152 13.4773 70.0898 13.9067 69.6525 14.248C69.2205 14.5893 68.6738 14.8107 68.0125 14.912C67.8632 14.9333 67.6978 14.9493 67.5165 14.96C67.3405 14.9707 67.1992 14.976 67.0925 14.976H64.2605V19H62.3325ZM64.2605 13.176H67.0125C67.1192 13.176 67.2392 13.1707 67.3725 13.16C67.5058 13.1493 67.6285 13.128 67.7405 13.096C68.0605 13.016 68.3112 12.8747 68.4925 12.672C68.6792 12.4693 68.8098 12.24 68.8845 11.984C68.9645 11.728 69.0045 11.4773 69.0045 11.232C69.0045 10.9867 68.9645 10.736 68.8845 10.48C68.8098 10.2187 68.6792 9.98667 68.4925 9.784C68.3112 9.58133 68.0605 9.44 67.7405 9.36C67.6285 9.328 67.5058 9.30933 67.3725 9.304C67.2392 9.29333 67.1192 9.288 67.0125 9.288H64.2605V13.176ZM72.2313 19V10.36H73.9353V12.464L73.7273 12.192C73.8339 11.904 73.9753 11.6427 74.1513 11.408C74.3326 11.168 74.5486 10.9707 74.7993 10.816C75.0126 10.672 75.2473 10.56 75.5033 10.48C75.7646 10.3947 76.0313 10.344 76.3033 10.328C76.5753 10.3067 76.8393 10.3173 77.0953 10.36V12.16C76.8393 12.0853 76.5433 12.0613 76.2073 12.088C75.8766 12.1147 75.5779 12.208 75.3113 12.368C75.0446 12.512 74.8259 12.696 74.6553 12.92C74.4899 13.144 74.3673 13.4 74.2873 13.688C74.2073 13.9707 74.1673 14.2773 74.1673 14.608V19H72.2313ZM81.9616 19.24C81.0976 19.24 80.343 19.0453 79.6976 18.656C79.0523 18.2667 78.551 17.7307 78.1936 17.048C77.8416 16.36 77.6656 15.5707 77.6656 14.68C77.6656 13.7733 77.847 12.9787 78.2096 12.296C78.5723 11.6133 79.0763 11.08 79.7216 10.696C80.367 10.312 81.1136 10.12 81.9616 10.12C82.831 10.12 83.5883 10.3147 84.2336 10.704C84.879 11.0933 85.3803 11.632 85.7376 12.32C86.095 13.0027 86.2736 13.7893 86.2736 14.68C86.2736 15.576 86.0923 16.368 85.7296 17.056C85.3723 17.7387 84.871 18.2747 84.2256 18.664C83.5803 19.048 82.8256 19.24 81.9616 19.24ZM81.9616 17.432C82.7296 17.432 83.3003 17.176 83.6736 16.664C84.047 16.152 84.2336 15.4907 84.2336 14.68C84.2336 13.8427 84.0443 13.176 83.6656 12.68C83.287 12.1787 82.719 11.928 81.9616 11.928C81.4443 11.928 81.0176 12.0453 80.6816 12.28C80.351 12.5093 80.1056 12.832 79.9456 13.248C79.7856 13.6587 79.7056 14.136 79.7056 14.68C79.7056 15.5173 79.895 16.1867 80.2736 16.688C80.6576 17.184 81.2203 17.432 81.9616 17.432ZM86.4362 22.84V21.032H86.8442C87.3136 21.032 87.6469 20.9227 87.8442 20.704C88.0416 20.4853 88.1402 20.1627 88.1402 19.736V10.36H90.0602V20.6C90.0602 21.2987 89.8549 21.8453 89.4442 22.24C89.0389 22.64 88.4736 22.84 87.7482 22.84H86.4362ZM88.1402 9.048V7.28H90.0602V9.048H88.1402ZM95.9336 19.24C95.059 19.24 94.291 19.0507 93.6296 18.672C92.9683 18.2933 92.451 17.768 92.0776 17.096C91.7096 16.424 91.5256 15.6507 91.5256 14.776C91.5256 13.832 91.707 13.0133 92.0696 12.32C92.4323 11.6213 92.9363 11.08 93.5816 10.696C94.227 10.312 94.9736 10.12 95.8216 10.12C96.7176 10.12 97.4776 10.3307 98.1016 10.752C98.731 11.168 99.1976 11.7573 99.5016 12.52C99.8056 13.2827 99.9203 14.1813 99.8456 15.216H97.9336V14.512C97.9283 13.5733 97.763 12.888 97.4376 12.456C97.1123 12.024 96.6003 11.808 95.9016 11.808C95.1123 11.808 94.5256 12.0533 94.1416 12.544C93.7576 13.0293 93.5656 13.7413 93.5656 14.68C93.5656 15.5547 93.7576 16.232 94.1416 16.712C94.5256 17.192 95.0856 17.432 95.8216 17.432C96.2963 17.432 96.7043 17.328 97.0456 17.12C97.3923 16.9067 97.659 16.6 97.8456 16.2L99.7496 16.776C99.419 17.5547 98.907 18.16 98.2136 18.592C97.5256 19.024 96.7656 19.24 95.9336 19.24ZM92.9576 15.216V13.76H98.9016V15.216H92.9576ZM105.063 19.24C104.172 19.24 103.412 19.0427 102.783 18.648C102.153 18.248 101.671 17.704 101.335 17.016C101.004 16.328 100.836 15.5493 100.831 14.68C100.836 13.7947 101.009 13.0107 101.351 12.328C101.697 11.64 102.188 11.1013 102.823 10.712C103.457 10.3173 104.212 10.12 105.087 10.12C106.068 10.12 106.897 10.368 107.575 10.864C108.257 11.3547 108.703 12.0267 108.911 12.88L106.991 13.4C106.841 12.936 106.593 12.576 106.247 12.32C105.9 12.0587 105.505 11.928 105.063 11.928C104.561 11.928 104.148 12.048 103.823 12.288C103.497 12.5227 103.257 12.848 103.103 13.264C102.948 13.68 102.871 14.152 102.871 14.68C102.871 15.5013 103.055 16.1653 103.423 16.672C103.791 17.1787 104.337 17.432 105.063 17.432C105.575 17.432 105.977 17.3147 106.271 17.08C106.569 16.8453 106.793 16.5067 106.943 16.064L108.911 16.504C108.644 17.384 108.177 18.0613 107.511 18.536C106.844 19.0053 106.028 19.24 105.063 19.24ZM115.258 19C114.687 19.1067 114.127 19.152 113.578 19.136C113.034 19.1253 112.546 19.0267 112.114 18.84C111.682 18.648 111.354 18.3467 111.13 17.936C110.932 17.5627 110.828 17.1813 110.818 16.792C110.807 16.4027 110.802 15.9627 110.802 15.472V7.96H112.722V15.36C112.722 15.7067 112.724 16.0107 112.73 16.272C112.74 16.5333 112.796 16.7467 112.898 16.912C113.09 17.232 113.396 17.4107 113.818 17.448C114.239 17.4853 114.719 17.464 115.258 17.384V19ZM109.234 11.872V10.36H115.258V11.872H109.234ZM120.132 19.24C119.065 19.24 118.198 19 117.532 18.52C116.865 18.04 116.46 17.3653 116.316 16.496L118.284 16.192C118.385 16.6187 118.609 16.9547 118.956 17.2C119.302 17.4453 119.74 17.568 120.268 17.568C120.732 17.568 121.089 17.4773 121.34 17.296C121.596 17.1093 121.724 16.856 121.724 16.536C121.724 16.3387 121.676 16.1813 121.58 16.064C121.489 15.9413 121.286 15.824 120.972 15.712C120.657 15.6 120.174 15.4587 119.524 15.288C118.798 15.096 118.222 14.8907 117.796 14.672C117.369 14.448 117.062 14.184 116.876 13.88C116.689 13.576 116.596 13.208 116.596 12.776C116.596 12.2373 116.737 11.768 117.02 11.368C117.302 10.968 117.697 10.6613 118.204 10.448C118.71 10.2293 119.308 10.12 119.996 10.12C120.668 10.12 121.262 10.224 121.78 10.432C122.302 10.64 122.724 10.936 123.044 11.32C123.364 11.704 123.561 12.1547 123.636 12.672L121.668 13.024C121.62 12.656 121.452 12.3653 121.164 12.152C120.881 11.9387 120.502 11.8187 120.028 11.792C119.574 11.7653 119.209 11.8347 118.932 12C118.654 12.16 118.516 12.3867 118.516 12.68C118.516 12.8453 118.572 12.9867 118.684 13.104C118.796 13.2213 119.02 13.3387 119.356 13.456C119.697 13.5733 120.204 13.7173 120.876 13.888C121.564 14.064 122.113 14.2667 122.524 14.496C122.94 14.72 123.238 14.9893 123.42 15.304C123.606 15.6187 123.7 16 123.7 16.448C123.7 17.3173 123.382 18 122.748 18.496C122.118 18.992 121.246 19.24 120.132 19.24Z" fill="#155EEF"/>
</svg>
