<svg width="200" height="200" viewBox="0 0 200 200" fill="none" xmlns="http://www.w3.org/2000/svg">
<path fill-rule="evenodd" clip-rule="evenodd" d="M81.0897 91.8891C79.1374 91.8313 77.7611 90.2022 77.8892 88.263L78.0337 86.0745C78.1373 84.5064 79.1914 83.1735 80.5899 82.5581H111.782C121.149 82.5581 128.743 74.9645 128.743 65.5972C128.743 56.2299 121.149 48.6362 111.782 48.6362H91.3486C79.0029 48.4505 64.8135 48.3012 58.2479 48.2435C56.2411 48.2259 54.6203 46.6585 54.531 44.6663L54.4746 43.4075C54.3804 41.3068 56.0215 39.541 58.1381 39.5103C71.0149 39.3238 110.335 38.982 113.839 39.4477C117.881 39.9849 121.746 41.4083 125.145 43.6112C128.543 45.814 131.387 48.7393 133.463 52.1676C135.538 55.5959 136.792 59.4384 137.13 63.4071C137.468 67.3758 136.882 71.3677 135.415 75.0836C133.948 78.7995 131.638 82.143 128.659 84.8636C125.68 87.5842 122.109 89.6113 118.213 90.7928C114.887 91.8015 90.6269 92.1717 81.0897 91.8891Z" fill="#155EEF"/>
<path fill-rule="evenodd" clip-rule="evenodd" d="M55.2449 121.007C55.2971 119.339 56.6038 118.076 58.2525 117.915L60.2342 117.722C62.6035 117.491 64.6985 119.594 64.6881 121.993C64.6756 124.859 64.7857 128.32 64.9442 131.224L64.9442 131.791C64.9442 132.746 65.0221 133.682 65.1718 134.594C65.2014 134.943 65.2314 135.267 65.2615 135.559C65.3377 135.73 65.4072 135.886 65.4707 136.027C67.357 143.462 74.094 148.963 82.1158 148.963C91.5993 148.963 99.2873 141.275 99.2873 131.791L99.2873 96.9383C99.7209 95.4272 101.091 94.3222 102.729 94.2981L104.212 94.2763C106.209 94.2469 107.865 95.8421 107.905 97.8533C108.094 107.39 108.406 130.939 107.952 134.361C107.415 138.413 105.992 142.287 103.789 145.694C101.586 149.101 98.6609 151.951 95.2326 154.032C91.8042 156.113 87.9617 157.37 83.9931 157.709C80.0244 158.047 76.0325 157.46 72.3166 155.989C68.6006 154.518 65.2571 152.203 62.5365 149.217C59.8159 146.23 57.7889 142.65 56.6073 138.745C55.6326 135.524 55.0765 126.38 55.2449 121.007Z" fill="#155EEF"/>
<rect x="77.8613" y="85.3855" width="8.48047" height="50.8829" rx="3.7691" fill="#155EEF"/>
<path d="M104.113 60.886C106.194 60.886 107.882 62.5735 107.882 64.6551L107.882 76.8195C107.882 78.9011 106.194 80.5886 104.113 80.5886L103.137 80.5886C101.11 80.5886 99.446 78.9855 99.3705 76.9599L99.236 73.3544C99.161 71.3418 97.517 69.7438 95.5031 69.7259L58.85 69.3997C56.7815 69.3813 55.1144 67.6993 55.1144 65.6308L55.1144 64.6551C55.1144 62.5735 56.8019 60.886 58.8835 60.886L104.113 60.886Z" fill="#155EEF"/>
</svg>
