<svg width="60" height="62" viewBox="0 0 60 62" fill="none" xmlns="http://www.w3.org/2000/svg">
<path fill-rule="evenodd" clip-rule="evenodd" d="M25.0331 28.3671C24.4304 28.3493 24.0055 27.8464 24.045 27.2477L24.0897 26.5721C24.1216 26.088 24.4471 25.6765 24.8788 25.4865H34.5087C37.4005 25.4865 39.7448 23.1422 39.7448 20.2504C39.7448 17.3586 37.4005 15.0143 34.5087 15.0143H28.198C24.3872 14.957 20.008 14.9109 17.9815 14.8931C17.362 14.8877 16.8616 14.4038 16.834 13.7888L16.8166 13.4002C16.7875 12.7516 17.2942 12.2065 17.9476 12.1971C21.9229 12.1395 34.0615 12.034 35.1433 12.1777C36.3912 12.3436 37.5844 12.783 38.6335 13.463C39.6827 14.1431 40.5606 15.0462 41.2013 16.1045C41.8421 17.1629 42.2292 18.3492 42.3336 19.5743C42.4379 20.7995 42.2569 22.0319 41.804 23.179C41.351 24.3262 40.638 25.3584 39.7183 26.1983C38.7987 27.0382 37.6962 27.6639 36.4935 28.0287C35.4668 28.3401 27.9774 28.4544 25.0331 28.3671Z" fill="#101828"/>
<path fill-rule="evenodd" clip-rule="evenodd" d="M17.0536 37.3563C17.0698 36.8414 17.4732 36.4513 17.9822 36.4017L18.5939 36.3421C19.3253 36.2708 19.9721 36.9201 19.9689 37.6606C19.965 38.5477 19.9992 39.6192 20.0483 40.5173L20.0483 40.6856C20.0483 40.9786 20.0721 41.266 20.1178 41.5461C20.1271 41.6558 20.1365 41.7572 20.1459 41.8487C20.1698 41.9022 20.1915 41.9509 20.2113 41.9952C20.7943 44.2895 22.8737 45.9867 25.3494 45.9867C28.2771 45.9867 30.6505 43.6133 30.6505 40.6856L30.6505 29.9246C30.7848 29.4588 31.2074 29.1183 31.7126 29.1109L32.1704 29.1041C32.787 29.0951 33.2981 29.5875 33.3104 30.2084C33.3688 33.1525 33.4652 40.4225 33.3252 41.4788C33.1594 42.7297 32.7199 43.9259 32.0399 44.9776C31.3598 46.0293 30.4568 46.9093 29.3984 47.5516C28.34 48.194 27.1538 48.582 25.9286 48.6866C24.7034 48.7912 23.4711 48.6097 22.3239 48.1557C21.1768 47.7017 20.1446 46.9869 19.3047 46.065C18.4648 45.1431 17.839 44.0379 17.4743 42.8323C17.1734 41.8378 17.0017 39.015 17.0536 37.3563Z" fill="#101828"/>
<rect x="24.0371" y="26.3596" width="2.61804" height="15.7083" rx="1.16357" fill="#101828"/>
<path d="M32.1411 18.7961C32.7837 18.7961 33.3047 19.3171 33.3047 19.9597L33.3047 23.715C33.3047 24.3577 32.7837 24.8786 32.1411 24.8786L31.8399 24.8786C31.2141 24.8786 30.7004 24.3837 30.6771 23.7584L30.6356 22.6453C30.6124 22.024 30.1049 21.5307 29.4832 21.5252L18.1679 21.4244C17.5293 21.4188 17.0147 20.8995 17.0147 20.2609L17.0147 19.9597C17.0147 19.3171 17.5356 18.7961 18.1782 18.7961L32.1411 18.7961Z" fill="#101828"/>
</svg>
